<?xml version="1.0" encoding="UTF-8" standalone="no"?>
<!-- Created with Inkscape (http://www.inkscape.org/) -->

<svg
   xmlns:dc="http://purl.org/dc/elements/1.1/"
   xmlns:cc="http://creativecommons.org/ns#"
   xmlns:rdf="http://www.w3.org/1999/02/22-rdf-syntax-ns#"
   xmlns:svg="http://www.w3.org/2000/svg"
   xmlns="http://www.w3.org/2000/svg"
   xmlns:sodipodi="http://sodipodi.sourceforge.net/DTD/sodipodi-0.dtd"
   xmlns:inkscape="http://www.inkscape.org/namespaces/inkscape"
   width="744.09448819"
   height="1052.3622047"
   id="svg2"
   version="1.1"
   inkscape:version="0.48.4 r9939"
   sodipodi:docname="Planets.svg">
  <defs
     id="defs4" />
  <sodipodi:namedview
     id="base"
     pagecolor="#ffffff"
     bordercolor="#666666"
     borderopacity="1.0"
     inkscape:pageopacity="0.0"
     inkscape:pageshadow="2"
     inkscape:zoom="0.30528069"
     inkscape:cx="356.73089"
     inkscape:cy="726.15623"
     inkscape:document-units="px"
     inkscape:current-layer="layer1"
     showgrid="false"
     inkscape:window-width="1366"
     inkscape:window-height="705"
     inkscape:window-x="-8"
     inkscape:window-y="-8"
     inkscape:window-maximized="1" />
  <metadata
     id="metadata7">
    <rdf:RDF>
      <cc:Work
         rdf:about="">
        <dc:format>image/svg+xml</dc:format>
        <dc:type
           rdf:resource="http://purl.org/dc/dcmitype/StillImage" />
        <dc:title></dc:title>
      </cc:Work>
    </rdf:RDF>
  </metadata>
  <g
     inkscape:label="Layer 1"
     inkscape:groupmode="layer"
     id="layer1">
    <g
       id="g4238"
       transform="translate(-26.772608,-494.07631)"
       inkscape:export-filename="C:\Users\Steveyc\Desktop\FachtnaWeb\Archive.png"
       inkscape:export-xdpi="90"
       inkscape:export-ydpi="90">
      <path
         transform="matrix(2.9693944,0,0,2.8386663,-253.00208,-196.48691)"
         d="m 259.01177,144.96049 c 0,37.78185 -29.27982,68.41009 -65.39832,68.41009 -36.1185,0 -65.39832,-30.62824 -65.39832,-68.41009 0,-37.78184 29.27982,-68.410083 65.39832,-68.410083 36.1185,0 65.39832,30.628243 65.39832,68.410083 z"
         sodipodi:ry="68.410088"
         sodipodi:rx="65.398323"
         sodipodi:cy="144.96049"
         sodipodi:cx="193.61345"
         id="path2985"
         style="fill:#aa0000;fill-opacity:1;fill-rule:evenodd;stroke:#550000;stroke-width:4;stroke-linecap:round;stroke-linejoin:round;stroke-miterlimit:4;stroke-opacity:1;stroke-dasharray:none;stroke-dashoffset:0"
         sodipodi:type="arc" />
      <path
         transform="matrix(-0.58901575,2.572204,-1.3063785,0.25155227,824.0292,-714.51077)"
         d="m 324.41008,292.10672 c 0,43.48477 -13.67676,78.73614 -30.5479,78.73614 -16.87114,0 -30.5479,-35.25137 -30.5479,-78.73614 0,-43.48477 13.67676,-78.73614 30.5479,-78.73614 16.87114,0 30.5479,35.25137 30.5479,78.73614 z"
         sodipodi:ry="78.736137"
         sodipodi:rx="30.547899"
         sodipodi:cy="292.10672"
         sodipodi:cx="293.86218"
         id="path3849"
         style="fill:#ff5555;fill-opacity:1;fill-rule:evenodd;stroke:#ff5555;stroke-width:4;stroke-linecap:round;stroke-linejoin:round;stroke-miterlimit:4;stroke-opacity:1;stroke-dasharray:none;stroke-dashoffset:0"
         sodipodi:type="arc" />
      <path
         inkscape:connector-curvature="0"
         id="path3859-8"
         d="M 454.85868,186.80157 C 480.66862,97.299139 413.7796,133.4011 375.09764,110.44243 361.14918,102.16368 360.44431,84.999519 357.05591,71.715849 c -0.53045,-2.07956 -3.43135,-14.329922 -3.60942,-14.150151 -10.43441,10.534551 -20.45515,32.108371 -26.05104,45.578102 -4.64305,11.17618 -7.46008,22.1689 -6.32974,34.26808 6.15444,65.8776 59.49477,12.19223 82.83005,39.15509 8.85473,10.23123 2.56696,33.95413 1.69561,46.0359 -2.36043,32.72849 38.03953,31.11374 56.35308,26.44232 0.63409,-0.16173 3.31053,-4.98507 3.51357,-5.91985 3.07606,-14.16125 -56.98228,-39.30626 -38.76123,-51.0241 8.0873,-5.20089 29.227,8.34104 36.51198,12.66485 2.15211,1.27732 19.16008,8.64582 18.77638,7.1416 -1.23446,-4.83948 -9.48925,-8.8853 -12.60366,-12.48385 -4.5892,-5.30262 -10.94839,-5.99664 -14.52281,-12.62227 z"
         style="fill:#d40000;stroke:#d40000;stroke-width:1px;stroke-linecap:butt;stroke-linejoin:miter;stroke-opacity:1" />
      <path
         inkscape:connector-curvature="0"
         id="path3857"
         d="m 283.1248,282.77432 c 12.93996,-30.65097 26.72681,-61.86222 40.80264,-91.83768 1.28306,-2.73237 14.82385,-36.10809 14.48622,-36.41327 -9.64613,-8.71898 -36.97815,31.92546 -48.44386,21.56178 -6.96726,-6.29757 -9.61818,-35.5082 -15.02935,-45.2694 -9.05052,-16.32606 -99.56405,51.17687 -113.53288,73.62485 -0.89497,1.4382 20.4872,4.63744 22.74891,4.72009 21.20151,0.77485 45.97176,-3.99345 63.72181,12.05059 21.96466,19.8535 -31.65416,84.30842 -28.12085,86.46809 15.27331,9.33551 48.0345,-20.28007 63.36739,-24.90507 z"
         style="fill:#ffaaaa;stroke:#de8787;stroke-width:1.73136759px;stroke-linecap:butt;stroke-linejoin:miter;stroke-opacity:1" />
      <path
         inkscape:connector-curvature="0"
         id="path3859-8-8"
         d="m 313.04516,368.54502 c 66.80191,2.55377 26.88512,-42.932 33.61613,-77.9359 2.42716,-12.62218 13.9393,-16.58328 22.19584,-21.88656 1.29256,-0.83022 8.95826,-5.54472 8.7951,-5.64922 -9.56144,-6.12261 -26.53611,-9.72885 -36.98262,-11.46044 -8.66773,-1.43674 -16.7913,-1.47257 -24.76083,1.81827 -43.39247,17.91791 5.37176,49.24964 -7.60733,72.96836 -4.925,9.00024 -22.50399,8.75881 -30.9214,10.47061 -22.80206,4.63708 -12.42514,36.11662 -5.04184,49.60469 0.25562,0.46702 4.15086,1.61652 4.83328,1.59083 10.33811,-0.38908 13.64661,-52.65284 25.80121,-40.63596 5.39474,5.33363 1.0395,24.66073 -0.22816,31.25302 -0.37448,1.94748 -1.47986,16.79724 -0.5449,16.1967 3.00799,-1.93209 3.86384,-9.23257 5.59607,-12.39816 2.55252,-4.66461 1.56403,-9.80784 5.24945,-13.93624 z"
         style="fill:#d40000;stroke:#d40000;stroke-width:0.76219171px;stroke-linecap:butt;stroke-linejoin:miter;stroke-opacity:1" />
      <path
         inkscape:connector-curvature="0"
         id="path3851"
         d="m 160.50788,207.14996 c -11.10236,1.57691 -22.45102,3.96885 -19.04478,16.75436 4.5844,17.20769 34.0227,19.1745 41.66043,33.50871 16.77756,31.48767 -12.17052,61.30716 30.94774,81.53792 5.57452,2.61553 37.14988,18.75305 42.85071,13.40349 14.14867,-13.27692 -28.62456,-40.1566 -16.66418,-51.38006 4.90034,-4.59838 22.04876,-7.83637 27.37684,-11.16957 4.28427,-2.68019 5.31158,-9.19388 9.52239,-11.16958 23.28717,-10.92616 72.30016,-39.49811 48.8022,-70.36831 -38.75243,-50.91057 -47.25849,13.40349 -76.17904,13.40349 -17.01725,0 -88.77239,-71.30662 -99.98499,-50.26309 -7.01744,13.17007 16.12154,23.05361 10.71268,35.74264 z"
         style="fill:#800000;stroke:#800000;stroke-width:1.33996391px;stroke-linecap:butt;stroke-linejoin:miter;stroke-opacity:1" />
      <path
         inkscape:connector-curvature="0"
         id="path3851-6"
         d="m 305.13807,233.13171 c -11.55112,1.54034 -23.35851,3.87678 -19.81457,16.36564 4.76969,16.80846 35.39792,18.72964 43.34436,32.73129 17.45573,30.7571 -12.66245,59.88474 32.19866,79.64612 5.79987,2.55485 38.65151,18.31796 44.58277,13.09251 14.72059,-12.96887 -29.78158,-39.22491 -17.33775,-50.18797 5.0984,-4.4917 22.93999,-7.65455 28.48343,-10.91042 4.45745,-2.61801 5.52627,-8.98058 9.90729,-10.91043 24.22845,-10.67267 75.2226,-38.58171 50.77481,-68.73568 -40.3188,-49.72937 -49.1687,13.09251 -79.25825,13.09251 -17.70509,0 -92.36061,-69.65221 -104.02645,-49.09693 -7.30107,12.86452 16.7732,22.51875 11.1457,34.91336 z"
         style="fill:#800000;stroke:#800000;stroke-width:1.35082829px;stroke-linecap:butt;stroke-linejoin:miter;stroke-opacity:1" />
      <path
         inkscape:connector-curvature="0"
         id="path3859"
         d="m 366.50151,230.743 c -79.41746,-48.6796 -62.40103,25.40099 -94.81878,56.58567 -11.68963,11.24499 -28.42331,7.36052 -42.12975,7.09479 -2.14575,-0.0416 -14.72645,-0.50252 -14.6005,-0.28306 7.38079,12.85993 25.51343,28.25643 37.0103,37.23248 9.53925,7.44767 19.38718,13.08626 31.35135,15.2138 65.14249,11.58405 27.57305,-54.11105 59.77012,-69.43681 12.21739,-5.81546 33.41435,6.5539 44.82949,10.60644 30.92263,10.978 40.10841,-28.39694 40.47475,-47.29334 0.0127,-0.65427 -3.92533,-4.51689 -4.77247,-4.96118 -12.83352,-6.73082 -53.04291,44.47935 -59.49391,23.79846 -2.86323,-9.17908 15.81226,-25.95694 21.9175,-31.82996 1.80359,-1.73499 13.42926,-16.17138 11.87717,-16.20147 -4.99351,-0.0968 -11.08864,6.78503 -15.38577,8.83046 -6.332,3.01402 -8.69195,8.95974 -16.0295,10.64372 z"
         style="fill:#550000;stroke:#550000;stroke-width:1px;stroke-linecap:butt;stroke-linejoin:miter;stroke-opacity:1" />
      <text
         sodipodi:linespacing="125%"
         id="text3915"
         y="288.87131"
         x="177.41151"
         style="font-size:72px;font-style:normal;font-variant:normal;font-weight:normal;font-stretch:normal;line-height:125%;letter-spacing:0px;word-spacing:0px;fill:#ff8080;fill-opacity:1;stroke:#2b0000;stroke-width:3;stroke-miterlimit:4;stroke-dasharray:none;font-family:Franklin Gothic Demi;-inkscape-font-specification:Franklin Gothic Demi"
         xml:space="preserve"><tspan
           style="fill:#ff8080;stroke:#2b0000;stroke-width:3;stroke-miterlimit:4;stroke-dasharray:none"
           y="288.87131"
           x="177.41151"
           id="tspan3917"
           sodipodi:role="line">ARCHIVE</tspan></text>
    </g>
    <g
       id="g3987"
       transform="translate(681.65393,-557.87232)">
      <path
         transform="matrix(0.99804956,2.7966409,-2.6735183,0.95411025,552.09811,-21.700888)"
         d="m 259.01177,144.96049 c 0,37.78185 -29.27982,68.41009 -65.39832,68.41009 -36.1185,0 -65.39832,-30.62824 -65.39832,-68.41009 0,-37.78184 29.27982,-68.410083 65.39832,-68.410083 36.1185,0 65.39832,30.628243 65.39832,68.410083 z"
         sodipodi:ry="68.410088"
         sodipodi:rx="65.398323"
         sodipodi:cy="144.96049"
         sodipodi:cx="193.61345"
         id="path2985-2"
         style="fill:#3771c8;fill-opacity:1;fill-rule:evenodd;stroke:#002255;stroke-width:4;stroke-linecap:round;stroke-linejoin:round;stroke-miterlimit:4;stroke-opacity:1;stroke-dasharray:none;stroke-dashoffset:0"
         sodipodi:type="arc" />
      <path
         inkscape:connector-curvature="0"
         id="path3859-8-7"
         d="m 434.34974,793.8349 c 92.9704,-5.77449 36.48656,-56.63773 45.10806,-100.78594 3.10886,-15.91955 19.03754,-22.3525 30.40951,-30.00857 1.78028,-1.19856 12.34291,-8.04818 12.11375,-8.15547 -13.4288,-6.28657 -37.11559,-8.4731 -51.68253,-9.21609 -12.08656,-0.61647 -23.38659,0.42517 -34.40194,5.55643 -59.97639,27.93865 8.51401,60.13144 -9.03693,91.17167 -6.65982,11.77842 -31.11596,13.83001 -42.78771,17.07018 -31.61778,8.77734 -16.51806,46.28418 -5.963,61.96216 0.36544,0.54284 5.80775,1.44239 6.75639,1.31942 14.37128,-1.86267 17.86707,-66.87847 35.0275,-53.656 7.61655,5.86872 1.96778,30.33016 0.34409,38.6446 -0.47966,2.45623 -1.70289,20.95135 -0.41515,20.08438 4.14301,-2.78925 5.17892,-11.92364 7.52132,-16.06637 3.45164,-6.10449 1.96788,-12.32698 7.00664,-17.9204 z"
         style="fill:#0066ff;stroke:#0066ff;stroke-width:1px;stroke-linecap:butt;stroke-linejoin:miter;stroke-opacity:1" />
      <path
         transform="matrix(-2.6205336,0.30980106,-0.67600715,-1.1458262,1401.9877,818.55669)"
         d="m 324.41008,292.10672 c 0,43.48477 -13.67676,78.73614 -30.5479,78.73614 -16.87114,0 -30.5479,-35.25137 -30.5479,-78.73614 0,-43.48477 13.67676,-78.73614 30.5479,-78.73614 16.87114,0 30.5479,35.25137 30.5479,78.73614 z"
         sodipodi:ry="78.736137"
         sodipodi:rx="30.547899"
         sodipodi:cy="292.10672"
         sodipodi:cx="293.86218"
         id="path3849-7"
         style="fill:#80b3ff;fill-opacity:1;fill-rule:evenodd;stroke:#80b3ff;stroke-width:4;stroke-linecap:round;stroke-linejoin:round;stroke-miterlimit:4;stroke-opacity:1;stroke-dasharray:none;stroke-dashoffset:0"
         sodipodi:type="arc" />
      <path
         inkscape:connector-curvature="0"
         id="path3851-2"
         d="m 309.86416,521.94047 c -5.49871,-9.81829 -11.9947,-19.54204 -25.19721,-11.21606 -17.76891,11.20575 -10.08761,39.70129 -23.60658,52.63021 -29.69685,28.40062 -72.88097,13.09529 -81.09864,61.78049 -1.06242,6.29424 -8.56429,42.47589 -0.64664,45.69939 19.65057,8.00028 35.4449,-43.02273 52.05624,-36.2598 6.80588,2.77088 16.19934,17.61468 21.72921,21.29479 4.44653,2.95917 12.10064,1.31768 15.73197,4.48982 20.08237,17.54299 68.60638,52.23339 95.353,17.75466 44.11004,-56.8617 -30.91409,-39.11324 -40.62844,-66.33386 -5.71605,-16.01698 50.19492,-112.10911 22.81563,-114.23576 -17.1353,-1.33101 -20.45332,24.40574 -36.50854,24.39612 z"
         style="fill:#0044aa;stroke:#0044aa;stroke-width:1.46213102px;stroke-linecap:butt;stroke-linejoin:miter;stroke-opacity:1" />
      <path
         inkscape:connector-curvature="0"
         id="path3851-6-6"
         d="m 348.56998,650.75775 c -5.70172,-11.179 -12.28122,-22.3379 -23.31209,-14.34721 -14.84618,10.75447 -5.6493,42.50922 -16.57755,55.49949 -24.00585,28.5354 -63.63267,8.22378 -66.87243,60.69843 -0.41885,6.78419 -4.06517,45.6658 3.23504,49.84555 18.11819,10.37357 27.89178,-44.02223 43.20772,-35.25308 6.27514,3.59283 15.85462,20.58388 21.07237,25.06317 4.19554,3.60178 10.85618,2.44744 14.34551,6.21381 19.29711,20.82927 65.28203,62.75273 86.16121,27.33466 34.43355,-58.41079 -30.71456,-45.28486 -41.61069,-75.81697 -6.41143,-17.96551 35.23222,-118.22857 10.73991,-122.83293 -15.3285,-2.88164 -16.12986,24.94389 -30.389,23.59508 z"
         style="fill:#0044aa;stroke:#0044aa;stroke-width:1.43464303px;stroke-linecap:butt;stroke-linejoin:miter;stroke-opacity:1" />
      <path
         inkscape:connector-curvature="0"
         id="path3859-0"
         d="m 451.35866,662.97711 c 19.15435,-91.15891 -44.89695,-50.23308 -85.16337,-70.28328 -14.5198,-7.22997 -16.48572,-24.29573 -20.84235,-37.29407 -0.68203,-2.0349 -4.47645,-14.0386 -4.64081,-13.84622 -9.63099,11.27377 -18.03715,33.52644 -22.62676,47.37141 -3.80812,11.48752 -5.80866,22.65772 -3.79112,34.64093 10.98507,65.24617 60.23062,7.78152 85.48658,32.95426 9.58354,9.55196 5.05836,33.67321 5.07836,45.78635 0.0541,32.81345 40.22578,28.23042 58.14596,22.22414 0.62047,-0.20795 2.93475,-5.21514 3.06846,-6.16233 2.02573,-14.3492 -59.71999,-35.00693 -42.41054,-48.03372 7.6827,-5.78185 29.76151,6.16789 37.3449,9.94395 2.24026,1.11551 19.7443,7.21257 19.25096,5.74067 -1.58721,-4.73554 -10.11732,-8.163 -13.48807,-11.52264 -4.96693,-4.95056 -11.35995,-5.17479 -15.4122,-11.51945 z"
         style="fill:#00112b;stroke:#550000;stroke-width:1px;stroke-linecap:butt;stroke-linejoin:miter;stroke-opacity:1" />
      <path
         inkscape:connector-curvature="0"
         id="path3859-8-8-1"
         d="m 208.77624,617.37731 c -57.40339,76.90365 27.81991,71.72969 62.88206,112.18843 12.64318,14.58915 7.84901,31.92488 7.26299,46.64233 -0.0917,2.30401 -0.87826,15.77413 -0.62422,15.67746 14.88515,-5.66681 32.89733,-22.46503 43.41733,-33.25541 8.7287,-8.95306 15.39111,-18.55992 18.07439,-31.06994 14.60999,-68.1145 -61.42828,-39.31156 -78.3255,-76.71613 -6.41176,-14.19344 8.19518,-34.83014 13.07264,-46.40688 13.21269,-31.36034 -31.71027,-48.24805 -53.35225,-51.99854 -0.74932,-0.12989 -5.2556,3.4262 -5.78203,4.25984 -7.9751,12.62898 49.8701,65.03728 26.04361,68.31353 -10.57525,1.45413 -29.41392,-21.64282 -36.01716,-29.26243 -1.95073,-2.25094 -18.2516,-17.33797 -18.31795,-15.67139 -0.21348,5.36182 7.54577,13.14969 9.80095,18.14184 3.32305,7.35613 10.08655,10.95419 11.86514,19.15729 z"
         style="fill:#0066ff;fill-opacity:1;stroke:#0066ff;stroke-width:1.11256218px;stroke-linecap:butt;stroke-linejoin:miter;stroke-opacity:1" />
      <path
         inkscape:connector-curvature="0"
         id="path3857-4"
         d="m 386.36002,703.63335 c -25.40501,-3.85015 -51.49278,-8.33438 -76.84636,-13.41214 -2.31108,-0.46287 -29.77785,-4.14777 -29.86388,-3.75528 -2.45797,11.21355 34.87028,25.7148 31.94864,39.0436 -1.77534,8.09936 -20.62528,18.26816 -25.30501,25.8458 -7.82705,12.67402 70.31336,78.43053 90.52665,85.39899 1.29503,0.44647 -4.18764,-20.14752 -4.94091,-22.25827 -7.06124,-19.78635 -19.15652,-41.40372 -14.63354,-62.03801 5.59691,-25.53373 68.46961,6.95267 68.66909,3.11853 0.86231,-16.5737 -30.93345,-39.00426 -39.55468,-51.94322 z"
         style="fill:#d5e5ff;stroke:#80b3ff;stroke-width:1.4696964px;stroke-linecap:butt;stroke-linejoin:miter;stroke-opacity:1" />
      <text
         sodipodi:linespacing="125%"
         id="text3915-6"
         y="754.94781"
         x="275.52295"
         style="font-size:72px;font-style:normal;font-variant:normal;font-weight:normal;font-stretch:normal;line-height:125%;letter-spacing:0px;word-spacing:0px;fill:#aaccff;fill-opacity:1;stroke:#0b1728;stroke-width:3;stroke-linecap:round;stroke-linejoin:round;stroke-miterlimit:4;stroke-dasharray:none;font-family:Franklin Gothic Demi;-inkscape-font-specification:Franklin Gothic Demi"
         xml:space="preserve"><tspan
           style="fill:#aaccff;stroke:#0b1728;stroke-width:3;stroke-linecap:round;stroke-linejoin:round;stroke-miterlimit:4;stroke-dasharray:none"
           y="754.94781"
           x="275.52295"
           id="tspan3917-0"
           sodipodi:role="line">TECH.</tspan></text>
    </g>
    <g
       id="g4250"
       transform="translate(-282.32932,-94.921065)">
      <path
         transform="matrix(2.3172481,-1.8567887,1.7750433,2.2152309,-832.35615,249.58137)"
         d="m 259.01177,144.96049 c 0,37.78185 -29.27982,68.41009 -65.39832,68.41009 -36.1185,0 -65.39832,-30.62824 -65.39832,-68.41009 0,-37.78184 29.27982,-68.410083 65.39832,-68.410083 36.1185,0 65.39832,30.628243 65.39832,68.410083 z"
         sodipodi:ry="68.410088"
         sodipodi:rx="65.398323"
         sodipodi:cy="144.96049"
         sodipodi:cx="193.61345"
         id="path2985-3"
         style="fill:#5a2ca0;fill-opacity:1;fill-rule:evenodd;stroke:#11002b;stroke-width:4;stroke-linecap:round;stroke-linejoin:round;stroke-miterlimit:4;stroke-opacity:1;stroke-dasharray:none;stroke-dashoffset:0"
         sodipodi:type="arc" />
      <path
         transform="matrix(1.1487675,2.3756065,-0.86217031,1.0131958,-315.79026,-828.14995)"
         d="m 324.41008,292.10672 c 0,43.48477 -13.67676,78.73614 -30.5479,78.73614 -16.87114,0 -30.5479,-35.25137 -30.5479,-78.73614 0,-43.48477 13.67676,-78.73614 30.5479,-78.73614 16.87114,0 30.5479,35.25137 30.5479,78.73614 z"
         sodipodi:ry="78.736137"
         sodipodi:rx="30.547899"
         sodipodi:cy="292.10672"
         sodipodi:cx="293.86218"
         id="path3849-2"
         style="fill:#8d5fd3;fill-opacity:1;fill-rule:evenodd;stroke:#8d5fd3;stroke-width:4;stroke-linecap:round;stroke-linejoin:round;stroke-miterlimit:4;stroke-opacity:1;stroke-dasharray:none;stroke-dashoffset:0"
         sodipodi:type="arc" />
      <path
         inkscape:connector-curvature="0"
         id="path3857-2"
         d="m -168.94285,91.637035 c 4.65921,25.269135 8.94211,51.390715 12.42424,77.012235 0.3174,2.33551 5.80624,29.49936 6.2053,29.45248 11.40135,-1.33959 12.91449,-41.35703 26.46652,-42.9493 8.235,-0.96757 24.003105,13.52697 32.693685,15.47489 14.535444,3.25796 51.161817,-92.074887 51.145688,-113.455627 -0.001,-1.369834 -17.674606,10.538836 -19.423541,11.940241 -16.394628,13.136858 -32.875545,31.629716 -53.855422,34.094706 -25.96136,3.05029 -15.79326,-66.985068 -19.48226,-65.921244 -15.94631,4.59853 -26.76094,41.97693 -36.17421,54.351619 z"
         style="fill:#c6afe9;stroke:#c6afe9;stroke-width:1.4696964px;stroke-linecap:butt;stroke-linejoin:miter;stroke-opacity:1" />
      <path
         inkscape:connector-curvature="0"
         id="path3859-8-6"
         d="m -170.36983,237.21995 c 68.5411,-63.07896 -7.36913,-66.96862 -28.50052,-106.6783 -7.61983,-14.31907 0.69246,-29.35273 4.69611,-42.464094 0.62678,-2.052582 4.51036,-14.027745 4.26482,-13.966612 -14.38807,3.582895 -34.15616,16.814214 -45.93395,25.418365 -9.77232,7.139081 -17.88895,15.069781 -23.20703,25.996161 -28.9559,59.49194 44.50872,41.31891 50.44597,76.47969 2.25293,13.34198 -15.44133,30.3486 -22.4609,40.22048 -19.01545,26.74207 16.34685,46.34491 34.42285,51.86455 0.62586,0.19114 5.41813,-2.54056 6.07714,-3.23392 9.98363,-10.50382 -28.27934,-63.18418 -6.62265,-63.73408 9.61218,-0.24406 20.6437,22.30758 24.62338,29.78611 1.17567,2.20929 11.88276,17.33952 12.33613,15.85481 1.4586,-4.77671 -3.49421,-12.52138 -4.28662,-17.21405 -1.16764,-6.91486 -6.24141,-10.81073 -5.85473,-18.32911 z"
         style="fill:#7137c8;stroke:#7137c8;stroke-width:1px;stroke-linecap:butt;stroke-linejoin:miter;stroke-opacity:1" />
      <path
         inkscape:connector-curvature="0"
         id="path3859-8-8-4"
         d="m -37.30622,336.56511 c 53.727594,-39.77892 -5.865222,-50.31466 -22.500744,-81.83987 -5.99866,-11.36779 0.508243,-21.65759 3.635271,-30.95904 0.489541,-1.45613 3.523661,-9.92865 3.33099,-9.90817 -11.290054,1.2009 -26.791716,9.00109 -36.026716,14.18209 -7.662506,4.29881 -14.024361,9.35059 -18.185811,16.9021 -22.65827,41.11643 34.988238,35.0743 39.691177,61.69979 1.784572,10.10323 -12.084642,20.90712 -17.582994,27.50645 -14.894604,17.87701 12.887745,35.95415 27.083715,41.86309 0.491512,0.20461 4.250062,-1.33408 4.766543,-1.78085 7.824331,-6.76814 -22.274784,-49.62243 -5.275348,-47.84511 7.5451,0.78887 16.231776,18.59467 19.364741,24.53182 0.925541,1.75394 9.348614,14.03356 9.702713,12.98027 1.139214,-3.38868 -2.757955,-9.62098 -3.385634,-13.17451 -0.924893,-5.23627 -4.912396,-8.63182 -4.617903,-14.15806 z"
         style="fill:#7137c8;fill-opacity:1;stroke:#7137c8;stroke-width:0.76219171px;stroke-linecap:butt;stroke-linejoin:miter;stroke-opacity:1" />
      <path
         inkscape:connector-curvature="0"
         id="path3851-5"
         d="m -253.88969,310.22665 c -7.71548,8.12849 -15.13236,17.02358 -4.77393,24.50275 13.94115,10.06601 38.10161,-6.86619 52.69531,-0.86936 32.0576,13.17315 27.42268,53.68889 73.2593,41.9283 5.92597,-1.52046 40.2885,-9.13865 41.516165,-16.72454 3.046869,-18.82718 -46.524705,-12.2796 -43.949065,-28.1949 1.05528,-6.5207 12.48922,-19.67877 14.64029,-25.51608 1.72967,-4.69374 -1.39133,-10.2318 0.70528,-14.35011 11.59499,-22.77551 32.641466,-74.90202 -4.28941,-83.40821 -60.90574,-14.02826 -28.81216,39.62886 -51.38403,57.71549 -13.2816,10.64241 -112.22853,1.92435 -108.30651,24.75261 2.45455,14.28707 26.46628,7.24451 29.8866,20.16405 z"
         style="fill:#442178;stroke:#442178;stroke-width:1.31509817px;stroke-linecap:butt;stroke-linejoin:miter;stroke-opacity:1" />
      <path
         inkscape:connector-curvature="0"
         id="path3851-6-8"
         d="m -125.68983,238.30026 c -8.11711,8.42618 -15.95037,17.61831 -5.56782,24.88245 13.9736,9.77663 39.153127,-8.00223 53.907952,-2.35392 32.411579,12.40755 26.537403,53.45987 73.7370303,40.29746 6.1021937,-1.7017 41.4529697,-10.35877 42.9207747,-18.05521 3.642888,-19.10154 -47.2299299,-11.09985 -44.1504701,-27.24707 1.2616969,-6.61572 13.3220164,-20.22613 15.6850781,-26.18229 1.900139,-4.78931 -1.1361522,-10.29557 1.123089,-14.51393 12.494331,-23.32891 35.47535,-76.56822 -2.0501178,-84.12547 -61.8862752,-12.46331 -30.5717682,40.83367 -54.1592122,59.73406 -13.879167,11.12124 -114.813204,5.08687 -111.442124,28.03449 2.10979,14.36175 26.86024,6.57598 29.99582,19.52943 z"
         style="fill:#442178;stroke:#442178;stroke-width:1.33599484px;stroke-linecap:butt;stroke-linejoin:miter;stroke-opacity:1" />
      <path
         inkscape:connector-curvature="0"
         id="path3859-81"
         d="m -73.711786,179.93367 c -62.838384,-68.76172 -66.994024,7.13442 -106.777524,28.12653 -14.34566,7.56961 -29.3501,-0.79531 -42.44736,-4.84488 -2.05038,-0.63397 -14.01186,-4.55948 -13.95158,-4.31373 3.53246,14.40053 16.69443,34.21487 25.25726,46.02273 7.10478,9.79729 15.00699,17.94165 25.91468,23.29798 59.39009,29.16419 41.47461,-44.36366 76.65597,-50.17767 13.349788,-2.20617 30.294297,15.54759 40.14153,22.60171 26.675264,19.10904 46.401902,-16.18437 51.984856,-34.24091 0.193318,-0.62518 -2.521563,-5.42699 -3.212607,-6.08843 -10.46877,-10.02037 -63.28291,28.05776 -63.756899,6.39927 -0.210374,-9.61298 22.379771,-20.56541 29.872215,-24.51886 2.213387,-1.16792 17.381039,-11.82191 15.897933,-12.28048 -4.771572,-1.47533 -12.533546,3.45031 -17.228973,4.22627 -6.918896,1.1434 -10.832529,6.20349 -18.349501,5.79047 z"
         style="fill:#2d1650;stroke:#2d1650;stroke-width:1px;stroke-linecap:butt;stroke-linejoin:miter;stroke-opacity:1" />
      <text
         sodipodi:linespacing="125%"
         id="text3915-9"
         y="295.8204"
         x="-205.50432"
         style="font-size:72px;font-style:normal;font-variant:normal;font-weight:normal;font-stretch:normal;line-height:125%;letter-spacing:0px;word-spacing:0px;fill:#ff8080;fill-opacity:1;stroke:#2b0000;stroke-width:3;stroke-miterlimit:4;stroke-dasharray:none;font-family:Franklin Gothic Demi;-inkscape-font-specification:Franklin Gothic Demi"
         xml:space="preserve"><tspan
           style="fill:#ccaaff;stroke:#11002b;stroke-width:3;stroke-miterlimit:4;stroke-dasharray:none"
           y="295.8204"
           x="-205.50432"
           id="tspan3917-8"
           sodipodi:role="line">MAIL</tspan></text>
    </g>
    <g
       id="g4212"
       transform="translate(-175.23889,228.7841)">
      <g
         transform="matrix(1.0498773,0,0,1.0498773,-508.17213,-38.160458)"
         id="g4134">
        <path
           sodipodi:type="arc"
           style="fill:#445500;fill-opacity:1;fill-rule:evenodd;stroke:#22280b;stroke-width:4;stroke-linecap:round;stroke-linejoin:round;stroke-miterlimit:4;stroke-opacity:1;stroke-dasharray:none;stroke-dashoffset:0"
           id="path2985-2-4"
           sodipodi:cx="193.61345"
           sodipodi:cy="144.96049"
           sodipodi:rx="65.398323"
           sodipodi:ry="68.410088"
           d="m 259.01177,144.96049 c 0,37.78185 -29.27982,68.41009 -65.39832,68.41009 -36.1185,0 -65.39832,-30.62824 -65.39832,-68.41009 0,-37.78184 29.27982,-68.410083 65.39832,-68.410083 36.1185,0 65.39832,30.628243 65.39832,68.410083 z"
           transform="matrix(-2.9418648,0.40340422,-0.38564427,-2.8123487,1007.5516,998.15228)" />
        <path
           style="fill:#88aa00;stroke:#677821;stroke-width:1px;stroke-linecap:butt;stroke-linejoin:miter;stroke-opacity:1"
           d="m 233.48782,715.68368 c -13.41138,92.17903 47.9529,47.32463 89.39527,64.81534 14.94384,6.30704 17.97399,23.21633 23.13562,35.91651 0.80805,1.98822 5.34631,13.7309 5.49831,13.52861 8.90651,-11.85444 15.90346,-34.5896 19.61755,-48.69468 3.08167,-11.70335 4.37919,-22.97686 1.6156,-34.81031 -15.04712,-64.43073 -60.59955,-3.99658 -87.3815,-27.53927 -10.16259,-8.93343 -7.15597,-33.29061 -7.93405,-45.37874 -2.10775,-32.74574 -41.91379,-25.65746 -59.42292,-18.54138 -0.60624,0.24637 -2.6026,5.3886 -2.67676,6.34229 -1.12367,14.44786 61.7939,31.20058 45.3337,45.28519 -7.30576,6.25136 -30.0892,-4.2931 -37.89405,-7.58713 -2.30569,-0.97311 -20.15701,-5.9627 -19.57251,-4.52455 1.88048,4.62691 10.60838,7.51377 14.18279,10.65585 5.26704,4.63 11.66155,4.45366 16.10295,10.53227 z"
           id="path3859-8-7-5"
           inkscape:connector-curvature="0" />
        <path
           sodipodi:type="arc"
           style="fill:#ddff55;fill-opacity:1;fill-rule:evenodd;stroke:#89a02c;stroke-width:4;stroke-linecap:round;stroke-linejoin:round;stroke-miterlimit:4;stroke-opacity:1;stroke-dasharray:none;stroke-dashoffset:0"
           id="path3849-7-2"
           sodipodi:cx="293.86218"
           sodipodi:cy="292.10672"
           sodipodi:rx="30.547899"
           sodipodi:ry="78.736137"
           d="m 324.41008,292.10672 c 0,43.48477 -13.67676,78.73614 -30.5479,78.73614 -16.87114,0 -30.5479,-35.25137 -30.5479,-78.73614 0,-43.48477 13.67676,-78.73614 30.5479,-78.73614 16.87114,0 30.5479,35.25137 30.5479,78.73614 z"
           transform="matrix(0.23411061,-2.6283769,1.2600925,-0.42669689,10.881302,1657.6926)" />
        <path
           style="fill:#668000;stroke:#668000;stroke-width:1.46213102px;stroke-linecap:butt;stroke-linejoin:miter;stroke-opacity:1"
           d="m 525.13038,649.5939 c 10.73716,-3.36868 21.58628,-7.73283 16.14432,-22.36202 -7.32421,-19.68906 -36.78931,-18.01386 -46.67151,-33.8966 -21.70797,-34.88929 2.12688,-74.01756 -43.83888,-92.04331 -5.94266,-2.33045 -39.81731,-17.09182 -44.5958,-10.00336 -11.85955,17.59261 34.84078,43.5134 24.81546,58.38508 -4.10752,6.09312 -20.56201,12.24333 -25.29781,16.90111 -3.80803,3.74529 -3.77086,11.57335 -7.62019,14.47709 -21.28805,16.05855 -65.191,56.43842 -36.92914,89.68646 46.60895,54.83205 44.62098,-22.23724 73.25511,-26.16371 16.84871,-2.31039 99.43481,72.11589 107.13028,45.7544 4.81625,-16.4983 -19.69331,-25.02303 -16.39184,-40.73514 z"
           id="path3851-2-9"
           inkscape:connector-curvature="0" />
        <path
           style="fill:#88aa00;stroke:#88aa00;stroke-width:1.43464303px;stroke-linecap:butt;stroke-linejoin:miter;stroke-opacity:1"
           d="m 391.11369,661.06389 c 12.11059,-3.28837 24.38149,-7.43999 18.82241,-19.87493 -7.48181,-16.7359 -40.44763,-14.2456 -50.9211,-27.60525 -23.00679,-29.34685 4.99856,-63.96688 -45.69683,-77.89751 -6.55416,-1.80102 -43.86196,-13.34237 -49.44978,-7.05431 -13.86822,15.60617 37.36777,36.32572 25.64448,49.51815 -4.80318,5.40512 -23.39745,11.29712 -28.85144,15.48554 -4.38553,3.36787 -4.62145,10.12368 -9.02327,12.76659 -24.34348,14.61614 -74.80518,51.02776 -44.42084,78.72564 50.10924,45.6788 50.62055,-20.77649 82.73813,-25.18062 18.89842,-2.59146 108.49228,58.72588 118.02085,35.69807 5.96346,-14.41194 -21.10653,-20.90177 -16.86261,-34.58137 z"
           id="path3851-6-6-9"
           inkscape:connector-curvature="0" />
        <path
           style="fill:#222b00;stroke:#222b00;stroke-width:1px;stroke-linecap:butt;stroke-linejoin:miter;stroke-opacity:1"
           d="m 358.07759,759.16303 c 85.29449,37.4391 58.37167,-33.64292 86.25231,-68.94257 10.05357,-12.72882 27.15983,-11.15371 40.7753,-12.75251 2.13151,-0.25029 14.65819,-1.50279 14.5036,-1.7031 -9.05944,-11.73799 -29.11565,-24.52836 -41.72537,-31.8593 -10.46259,-6.08267 -20.98525,-10.33111 -33.12754,-10.81354 -66.11228,-2.62678 -19.96621,57.3553 -49.78271,76.91307 -11.31407,7.42132 -33.99493,-1.95367 -45.8548,-4.41784 -32.12733,-6.67531 -35.87871,33.58255 -33.67451,52.35353 0.0763,0.64993 4.50257,3.94174 5.40222,4.26682 13.62895,4.92493 46.50845,-51.27306 55.70922,-31.66031 4.0837,8.70501 -12.13931,27.86445 -17.39008,34.51245 -1.55116,1.96393 -11.1078,17.84587 -9.56602,17.66482 4.96037,-0.58248 10.06407,-8.22856 14.04349,-10.83881 5.86382,-3.8463 7.39414,-10.05751 14.43489,-12.72271 z"
           id="path3859-0-8"
           inkscape:connector-curvature="0" />
        <path
           style="fill:#668000;fill-opacity:1;stroke:#668000;stroke-width:1.11256218px;stroke-linecap:butt;stroke-linejoin:miter;stroke-opacity:1"
           d="m 452.44899,531.08494 c -63.49932,-71.95247 -75.90996,12.52094 -122.6984,38.54222 -16.87159,9.3831 -32.85595,1.13617 -47.14053,-2.45514 -2.23626,-0.56218 -15.25889,-4.09402 -15.21636,-3.82556 2.49427,15.73083 15.24225,36.8047 23.64627,49.3137 6.97305,10.37902 15.00969,18.86972 26.70371,24.06111 63.67151,28.26615 51.07189,-52.06241 91.1464,-60.93096 15.20657,-3.36522 32.4097,15.16282 42.74036,22.31041 27.9848,19.36225 53.72495,-21.14345 61.83334,-41.55657 0.28078,-0.70676 -2.27576,-5.84646 -2.98375,-6.53264 -10.72538,-10.39516 -73.88104,35.47487 -72.20216,11.48285 0.74518,-10.64871 27.21416,-24.35117 36.02584,-29.25174 2.6031,-1.44774 20.71199,-14.30872 19.09443,-14.71539 -5.20412,-1.30836 -14.41752,4.68915 -19.76601,5.8728 -7.88121,1.7441 -12.78965,7.62612 -21.18314,7.68491 z"
           id="path3859-8-8-1-3"
           inkscape:connector-curvature="0" />
        <path
           style="fill:#e5ff80;stroke:#e5ff80;stroke-width:1.4696964px;stroke-linecap:butt;stroke-linejoin:miter;stroke-opacity:1"
           d="m 331.61289,687.20906 c 8.97753,-24.07575 18.71567,-48.68975 28.88418,-72.46345 0.92691,-2.16707 10.16546,-28.29466 9.79895,-28.45934 -10.47129,-4.70504 -32.31842,28.85666 -44.76495,23.26408 -7.56324,-3.39835 -13.65088,-23.93285 -20.10796,-30.06691 -10.79982,-10.25949 -91.18152,52.73753 -102.14656,71.09248 -0.70253,1.17597 20.57809,0.0325 22.79845,-0.27196 20.81381,-2.8541 44.45195,-10.25984 63.72039,-1.60199 23.84358,10.71357 -20.84434,65.58918 -17.13257,66.5706 16.04474,4.24235 44.51828,-22.27853 58.95007,-28.06351 z"
           id="path3857-4-8"
           inkscape:connector-curvature="0" />
      </g>
      <text
         sodipodi:linespacing="125%"
         id="text3915-6-6"
         y="710.37817"
         x="-290.49841"
         style="font-size:72px;font-style:normal;font-variant:normal;font-weight:normal;font-stretch:normal;line-height:125%;letter-spacing:0px;word-spacing:0px;fill:#eeffaa;fill-opacity:1;stroke:#222b00;stroke-width:3;stroke-linecap:round;stroke-linejoin:round;stroke-miterlimit:4;stroke-dasharray:none;font-family:Franklin Gothic Demi;-inkscape-font-specification:Franklin Gothic Demi"
         xml:space="preserve"><tspan
           style="fill:#eeffaa;stroke:#222b00;stroke-width:3;stroke-linecap:round;stroke-linejoin:round;stroke-miterlimit:4;stroke-dasharray:none"
           y="710.37817"
           x="-290.49841"
           id="tspan3917-0-9"
           sodipodi:role="line">HUMANISM</tspan></text>
    </g>
    <g
       id="g4225"
       transform="translate(545.18765,287.19706)">
      <g
         transform="translate(-154.89076,-125.63361)"
         id="g4200">
        <path
           sodipodi:type="arc"
           style="fill:#d3bc5f;fill-opacity:1;fill-rule:evenodd;stroke:#a0892c;stroke-width:4;stroke-linecap:round;stroke-linejoin:round;stroke-miterlimit:4;stroke-opacity:1;stroke-dasharray:none;stroke-dashoffset:0"
           id="path2985-2-4-6"
           sodipodi:cx="193.61345"
           sodipodi:cy="144.96049"
           sodipodi:rx="65.398323"
           sodipodi:ry="68.410088"
           d="m 259.01177,144.96049 c 0,37.78185 -29.27982,68.41009 -65.39832,68.41009 -36.1185,0 -65.39832,-30.62824 -65.39832,-68.41009 0,-37.78184 29.27982,-68.410083 65.39832,-68.410083 36.1185,0 65.39832,30.628243 65.39832,68.410083 z"
           transform="matrix(-1.1468172,2.898899,-2.7712745,-1.0963284,1128.02,384.98535)" />
        <path
           sodipodi:type="arc"
           style="fill:#ffdd55;fill-opacity:1;fill-rule:evenodd;stroke:#ffdd55;stroke-width:4;stroke-linecap:round;stroke-linejoin:round;stroke-miterlimit:4;stroke-opacity:1;stroke-dasharray:none;stroke-dashoffset:0"
           id="path3849-7-2-2"
           sodipodi:cx="293.86218"
           sodipodi:cy="292.10672"
           sodipodi:rx="30.547899"
           sodipodi:ry="78.736137"
           d="m 324.41008,292.10672 c 0,43.48477 -13.67676,78.73614 -30.5479,78.73614 -16.87114,0 -30.5479,-35.25137 -30.5479,-78.73614 0,-43.48477 13.67676,-78.73614 30.5479,-78.73614 16.87114,0 30.5479,35.25137 30.5479,78.73614 z"
           transform="matrix(-2.2836529,-1.5684494,0.25895942,-1.3725168,1217.7828,1636.5145)" />
        <path
           style="fill:#d4aa00;stroke:#d4aa00;stroke-width:1.53505814px;stroke-linecap:butt;stroke-linejoin:miter;stroke-opacity:1"
           d="m 560.60715,646.67683 c 2.45097,-11.55746 4.04904,-23.73026 -12.13689,-26.29012 -21.78425,-3.44525 -35.43408,24.37081 -55.05456,25.2267 -43.09988,1.88007 -66.61091,-40.08387 -106.78413,-7.32513 -5.19377,4.2352 -36.15085,27.61574 -32.12893,35.63922 9.98191,19.91318 57.75552,-9.44951 66.19359,7.38384 3.45717,6.89686 0.60467,25.1174 2.42515,31.84939 1.46384,5.41316 8.64363,9.41265 9.31639,14.42997 3.7205,27.74736 18.03611,88.71329 63.01164,79.99245 74.17281,-14.38226 2.65014,-52.27456 13.81248,-80.49049 6.56807,-16.60264 117.20212,-53.7985 97.05339,-74.42089 -12.61003,-12.90654 -33.03675,5.12087 -45.70813,-5.99494 z"
           id="path3851-2-9-3"
           inkscape:connector-curvature="0" />
        <path
           style="fill:#ffd42a;stroke:#ffd42a;stroke-width:1.04987729px;stroke-linecap:butt;stroke-linejoin:miter;stroke-opacity:1"
           d="m 470.79018,947.50733 c 77.40947,59.76417 67.99796,-19.4799 105.35103,-48.37661 13.46927,-10.41996 30.49819,-4.47907 44.77514,-2.65671 2.23506,0.28529 15.31494,2.18451 15.20822,1.94124 -6.25456,-14.25527 -23.44606,-32.37019 -34.43481,-43.03541 -9.11766,-8.8492 -18.76143,-15.84489 -31.00992,-19.41423 -66.69054,-19.43442 -34.8804,53.37354 -70.21551,65.74143 -13.40815,4.69308 -34.13944,-10.60749 -45.59785,-16.12429 -31.03987,-14.94454 -45.06642,25.11994 -47.57882,44.80287 -0.087,0.68149 3.58815,5.15723 4.42231,5.71647 12.63705,8.47228 60.38038,-40.44891 64.78284,-18.13486 1.95399,9.90394 -19.43085,25.31172 -26.46556,30.75384 -2.07818,1.6077 -15.84044,15.36608 -14.22373,15.57243 5.20135,0.66392 12.33922,-5.83236 17.05516,-7.48302 6.94914,-2.43231 10.08268,-8.37249 17.9315,-9.30315 z"
           id="path3859-8-7-5-6"
           inkscape:connector-curvature="0" />
        <path
           style="fill:#ffeeaa;stroke:#ffe680;stroke-width:1.54300094px;stroke-linecap:butt;stroke-linejoin:miter;stroke-opacity:1"
           d="m 602.00582,820.70347 c -17.39728,-20.61739 -34.89501,-42.20788 -51.40232,-63.75907 -1.50471,-1.96449 -20.64439,-23.87787 -20.98388,-23.62747 -9.69933,7.15419 9.74393,44.43165 -1.78504,52.93535 -7.00564,5.16736 -28.92609,0.15535 -37.86423,2.90126 -14.94949,4.59271 1.25887,110.58093 12.39902,130.06867 0.71372,1.24856 10.6328,-18.80685 11.49837,-20.99478 8.11377,-20.50982 13.51925,-45.94846 31.3672,-59.11302 22.08579,-16.29039 49.25676,52.86267 52.06704,49.97306 12.14787,-12.49085 2.55946,-52.20189 4.70384,-68.384 z"
           id="path3857-4-8-2"
           inkscape:connector-curvature="0" />
        <path
           style="fill:#d4aa00;fill-opacity:1;stroke:#d4aa00;stroke-width:1.16805375px;stroke-linecap:butt;stroke-linejoin:miter;stroke-opacity:1"
           d="m 414.75244,652.09839 c -98.53649,21.01107 -27.66001,75.8894 -27.96555,132.09639 -0.11017,20.26786 -15.89008,30.64007 -26.53547,41.85628 -1.66651,1.75593 -11.60727,11.84843 -11.33979,11.94785 15.67482,5.82387 41.52046,5.02132 57.2932,3.77922 13.08704,-1.03062 24.99478,-4.00713 35.76902,-12.0292 58.66359,-43.67843 -21.30822,-73.5432 -8.77182,-114.77056 4.75704,-15.64402 30.56947,-21.83364 42.43064,-27.60063 32.13089,-15.62221 8.3416,-60.03874 -6.15316,-77.97388 -0.50183,-0.62101 -6.5206,-0.93072 -7.51308,-0.63666 -15.03523,4.45472 -5.61771,85.86073 -26.69911,71.96285 -9.35683,-6.16851 -8.25259,-37.44107 -8.19503,-48.02654 0.017,-3.12712 -2.41668,-26.3188 -3.62214,-25.04869 -3.87829,4.08626 -3.13943,15.60441 -4.81257,21.10677 -2.46548,8.10793 0.38592,15.62864 -3.88514,23.3368 z"
           id="path3859-8-8-1-3-6"
           inkscape:connector-curvature="0" />
        <path
           style="fill:#ffd42a;stroke:#ffd42a;stroke-width:1.55052102px;stroke-linecap:butt;stroke-linejoin:miter;stroke-opacity:1"
           d="m 513.27106,775.19361 c 3.42585,-12.76971 6.10227,-26.13074 -8.99037,-27.45258 -20.31282,-1.77907 -35.90246,29.6526 -54.57564,32.34883 -41.01894,5.9227 -59.29051,-37.52408 -100.48436,1.66283 -5.32574,5.06629 -36.89142,33.24047 -33.84648,41.59009 7.55722,20.72269 55.62866,-15.4613 62.01702,2.0563 2.61741,7.17718 -1.82507,27.21779 -0.74277,34.36339 0.87025,5.74573 7.29164,9.44176 7.45009,14.82893 0.87628,29.79278 8.62047,94.69988 52.06984,81.1806 71.65584,-22.29573 7.50194,-56.99791 20.77273,-88.63973 7.8087,-18.61848 116.19161,-68.96851 99.06849,-89.54566 -10.71648,-12.87819 -31.79301,8.53533 -42.73855,-2.393 z"
           id="path3851-6-6-9-8"
           inkscape:connector-curvature="0" />
        <path
           style="fill:#aa8800;stroke:#aa8800;stroke-width:1.04987729px;stroke-linecap:butt;stroke-linejoin:miter;stroke-opacity:1"
           d="m 655.64606,861.10634 c 78.19593,-58.73137 -0.69789,-70.72976 -18.62209,-114.42181 -6.46335,-15.75506 3.79165,-30.59124 9.34468,-43.86965 0.86933,-2.07874 6.17812,-14.18276 5.91524,-14.14456 -15.40518,2.23891 -37.43922,13.99475 -50.64241,21.75201 -10.95502,6.43639 -20.26315,13.87283 -26.96089,24.73129 -36.46788,59.12206 42.17737,47.81681 44.70437,85.1685 0.95888,14.17334 -19.30334,30.08987 -27.66834,39.66887 -22.66012,25.94862 12.2324,50.12345 30.5387,57.77913 0.63384,0.26508 5.92567,-2.08766 6.68659,-2.74311 11.52749,-9.92932 -22.93754,-68.96211 -0.25618,-67.27275 10.06699,0.74983 19.23381,25.46177 22.60948,33.69031 0.99724,2.43084 10.60092,19.35602 11.22972,17.8524 2.02307,-4.83757 -2.34137,-13.44585 -2.67863,-18.43095 -0.49697,-7.34571 -5.39009,-11.94595 -4.20024,-19.75968 z"
           id="path3859-0-8-2"
           inkscape:connector-curvature="0" />
        <text
           xml:space="preserve"
           style="font-size:72px;font-style:normal;font-variant:normal;font-weight:normal;font-stretch:normal;line-height:125%;letter-spacing:0px;word-spacing:0px;fill:#eeffaa;fill-opacity:1;stroke:#222b00;stroke-width:3;stroke-linecap:round;stroke-linejoin:round;stroke-miterlimit:4;stroke-dasharray:none;font-family:Franklin Gothic Demi;-inkscape-font-specification:Franklin Gothic Demi"
           x="405.13846"
           y="833.94141"
           id="text3915-6-6-7"
           sodipodi:linespacing="125%"><tspan
             sodipodi:role="line"
             id="tspan3917-0-9-5"
             x="405.13846"
             y="833.94141"
             style="fill:#eeffaa;stroke:#222b00;stroke-width:3;stroke-linecap:round;stroke-linejoin:round;stroke-miterlimit:4;stroke-dasharray:none">MENU</tspan></text>
      </g>
    </g>
  </g>
</svg>
