<?xml version="1.0" encoding="UTF-8" standalone="no"?>
<!-- Created with Inkscape (http://www.inkscape.org/) -->

<svg
   xmlns:dc="http://purl.org/dc/elements/1.1/"
   xmlns:cc="http://creativecommons.org/ns#"
   xmlns:rdf="http://www.w3.org/1999/02/22-rdf-syntax-ns#"
   xmlns:svg="http://www.w3.org/2000/svg"
   xmlns="http://www.w3.org/2000/svg"
   xmlns:sodipodi="http://sodipodi.sourceforge.net/DTD/sodipodi-0.dtd"
   xmlns:inkscape="http://www.inkscape.org/namespaces/inkscape"
   width="744.09448819"
   height="1052.3622047"
   id="svg2"
   version="1.1"
   inkscape:version="0.48.4 r9939"
   sodipodi:docname="inkscapeAvatars.svg">
  <defs
     id="defs4" />
  <sodipodi:namedview
     id="base"
     pagecolor="#ffffff"
     bordercolor="#666666"
     borderopacity="1.0"
     inkscape:pageopacity="0.0"
     inkscape:pageshadow="2"
     inkscape:zoom="0.96464155"
     inkscape:cx="-163.32008"
     inkscape:cy="617.67741"
     inkscape:document-units="px"
     inkscape:current-layer="layer1"
     showgrid="false"
     inkscape:window-width="1920"
     inkscape:window-height="1017"
     inkscape:window-x="-8"
     inkscape:window-y="-8"
     inkscape:window-maximized="1" />
  <metadata
     id="metadata7">
    <rdf:RDF>
      <cc:Work
         rdf:about="">
        <dc:format>image/svg+xml</dc:format>
        <dc:type
           rdf:resource="http://purl.org/dc/dcmitype/StillImage" />
      </cc:Work>
    </rdf:RDF>
  </metadata>
  <g
     inkscape:groupmode="layer"
     id="layer4"
     inkscape:label="Bottom">
    <rect
       style="fill:#ffe6d5;fill-opacity:1;fill-rule:evenodd;stroke:#ffccaa;stroke-width:5.23616648;stroke-linecap:round;stroke-linejoin:round;stroke-miterlimit:4;stroke-opacity:1;stroke-dasharray:none;stroke-dashoffset:0;display:inline"
       id="rect3851-4-4"
       width="87.991745"
       height="91.034088"
       x="163.60057"
       y="153.24673"
       rx="26.31819" />
    <rect
       style="fill:#3771c8;fill-opacity:1;fill-rule:evenodd;stroke:#2c5aa0;stroke-width:5.23616648;stroke-linecap:round;stroke-linejoin:round;stroke-miterlimit:4;stroke-opacity:1;stroke-dasharray:none;stroke-dashoffset:0;display:inline"
       id="rect3851-4-4-1-1"
       width="87.991745"
       height="91.034088"
       x="163.65315"
       y="152.91495"
       rx="26.31819" />
    <rect
       style="fill:#ffe6d5;fill-opacity:1;fill-rule:evenodd;stroke:#ffccaa;stroke-width:5.23616648;stroke-linecap:round;stroke-linejoin:round;stroke-miterlimit:4;stroke-opacity:1;stroke-dasharray:none;stroke-dashoffset:0;display:inline"
       id="rect3851-4-4-1-7"
       width="87.991745"
       height="91.034088"
       x="266.02798"
       y="152.00224"
       rx="26.31819" />
    <rect
       style="fill:#162d50;fill-opacity:1;fill-rule:evenodd;stroke:#0b1728;stroke-width:5.23616648;stroke-linecap:round;stroke-linejoin:round;stroke-miterlimit:4;stroke-opacity:1;stroke-dasharray:none;stroke-dashoffset:0;display:inline"
       id="rect3851-4-4-1-14"
       width="87.991745"
       height="91.034088"
       x="266.33221"
       y="152.13272"
       rx="26.31819" />
    <rect
       style="display:inline;fill:#ffe6d5;fill-opacity:1;fill-rule:evenodd;stroke:#ffccaa;stroke-width:5.23616647999999960;stroke-linecap:round;stroke-linejoin:round;stroke-miterlimit:4;stroke-opacity:1;stroke-dasharray:none;stroke-dashoffset:0"
       id="rect3851-9"
       width="87.991745"
       height="91.034088"
       x="48.116974"
       y="400.94766"
       rx="26.31819" />
    <rect
       style="fill:#447821;fill-opacity:1;fill-rule:evenodd;stroke:#2d5016;stroke-width:5.23616648;stroke-linecap:round;stroke-linejoin:round;stroke-miterlimit:4;stroke-opacity:1;stroke-dasharray:none;stroke-dashoffset:0;display:inline"
       id="rect3851-4-4-1-5-7"
       width="87.991745"
       height="91.034088"
       x="48.187092"
       y="400.81067"
       rx="26.31819" />
  </g>
  <g
     inkscape:label="Layer 1"
     inkscape:groupmode="layer"
     id="layer1"
     style="display:inline">
    <g
       id="g3853"
       transform="translate(-56.578343,80.829315)">
      <rect
         rx="26.31819"
         y="72.541977"
         x="113.59741"
         height="91.034088"
         width="87.991745"
         id="rect3851"
         style="fill:#ffe6d5;fill-opacity:1;fill-rule:evenodd;stroke:#ffccaa;stroke-width:5.23616648;stroke-linecap:round;stroke-linejoin:round;stroke-miterlimit:4;stroke-opacity:1;stroke-dasharray:none;stroke-dashoffset:0" />
      <path
         transform="matrix(1.266777,0,0,1.3319255,57.795937,-23.049423)"
         d="m 105.56926,55.234665 c 0,14.702091 -12.53135,26.620491 -27.989548,26.620491 -15.458198,0 -27.989544,-11.9184 -27.989544,-26.620491 0,-14.702091 12.531346,-26.620491 27.989544,-26.620491 15.458198,0 27.989548,11.9184 27.989548,26.620491 z"
         sodipodi:ry="26.620491"
         sodipodi:rx="27.989544"
         sodipodi:cy="55.234665"
         sodipodi:cx="77.579712"
         id="path3849"
         style="fill:#ffe6d5;fill-opacity:1;fill-rule:evenodd;stroke:#ffccaa;stroke-width:5;stroke-linecap:round;stroke-linejoin:round;stroke-miterlimit:4;stroke-opacity:1;stroke-dasharray:none;stroke-dashoffset:0"
         sodipodi:type="arc" />
    </g>
    <rect
       style="fill:#0044aa;fill-opacity:1;fill-rule:evenodd;stroke:#003380;stroke-width:5.23616648;stroke-linecap:round;stroke-linejoin:round;stroke-miterlimit:4;stroke-opacity:1;stroke-dasharray:none;stroke-dashoffset:0"
       id="rect3851-4"
       width="87.991745"
       height="91.034088"
       x="56.898045"
       y="153.17924"
       rx="26.31819" />
    <path
       style="fill:#ffe6d5;fill-opacity:1;fill-rule:evenodd;stroke:#ffccaa;stroke-width:4;stroke-linecap:round;stroke-linejoin:round;stroke-miterlimit:4;stroke-opacity:1;stroke-dasharray:none;stroke-dashoffset:0"
       d="m 241.53183,131.22378 c 0,19.58209 -15.99399,37.61713 -35.45652,35.45651 -19.22636,-2.1344 -34.2855,-22.90046 -35.45651,-35.45651 -1.81838,-19.49748 15.87442,-35.456509 35.45651,-35.456509 19.58209,0 35.45652,15.874419 35.45652,35.456509 z"
       id="path3849-0-8"
       inkscape:connector-curvature="0"
       sodipodi:nodetypes="sssss" />
    <text
       xml:space="preserve"
       style="font-size:72px;font-style:normal;font-variant:normal;font-weight:normal;font-stretch:normal;line-height:125%;letter-spacing:0px;word-spacing:0px;fill:#80b3ff;fill-opacity:1;stroke:none;font-family:Franklin Gothic Demi;-inkscape-font-specification:Franklin Gothic Demi"
       x="72.067055"
       y="205.99821"
       id="text3966"
       sodipodi:linespacing="125%"><tspan
         sodipodi:role="line"
         id="tspan3968"
         x="72.067055"
         y="205.99821"
         style="font-size:20px;fill:#80b3ff">Stevey</tspan></text>
    <rect
       style="fill:#ffe6d5;fill-opacity:1;fill-rule:evenodd;stroke:#ffccaa;stroke-width:5.23616648;stroke-linecap:round;stroke-linejoin:round;stroke-miterlimit:4;stroke-opacity:1;stroke-dasharray:none;stroke-dashoffset:0"
       id="rect3851-4-4-1"
       width="87.991745"
       height="91.034088"
       x="601.67987"
       y="270.55939"
       rx="26.31819" />
    <path
       style="fill:#ffe6d5;fill-opacity:1;fill-rule:evenodd;stroke:#ffccaa;stroke-width:4;stroke-linecap:round;stroke-linejoin:round;stroke-miterlimit:4;stroke-opacity:1;stroke-dashoffset:0"
       d="m 343.9592,129.9793 c 0,19.58208 -15.87505,35.6127 -35.45651,35.45651 -38.14038,-0.30424 -35.45652,-15.87443 -35.45652,-35.45651 0,-19.58209 15.87443,-35.456515 35.45652,-35.456515 19.58208,0 35.45651,15.874425 35.45651,35.456515 z"
       id="path3849-0-8-5-6"
       inkscape:connector-curvature="0"
       sodipodi:nodetypes="sssss" />
    <text
       xml:space="preserve"
       style="font-size:72px;font-style:normal;font-variant:normal;font-weight:normal;font-stretch:normal;line-height:125%;letter-spacing:0px;word-spacing:0px;fill:#80b3ff;fill-opacity:1;stroke:none;display:inline;font-family:Franklin Gothic Demi;-inkscape-font-specification:Franklin Gothic Demi"
       x="183.41447"
       y="207.88733"
       id="text3966-4"
       sodipodi:linespacing="125%"><tspan
         sodipodi:role="line"
         id="tspan3968-2"
         x="183.41447"
         y="207.88733"
         style="font-size:20px;fill:#80b3ff">Dean</tspan></text>
    <text
       xml:space="preserve"
       style="font-size:72px;font-style:normal;font-variant:normal;font-weight:normal;font-stretch:normal;line-height:125%;letter-spacing:0px;word-spacing:0px;fill:#80b3ff;fill-opacity:1;stroke:none;display:inline;font-family:Franklin Gothic Demi;-inkscape-font-specification:Franklin Gothic Demi"
       x="287.40903"
       y="205.30452"
       id="text3966-4-2"
       sodipodi:linespacing="125%"><tspan
         sodipodi:role="line"
         id="tspan3968-2-4"
         x="287.40903"
         y="205.30452"
         style="font-size:20px;fill:#80b3ff">Aidan</tspan></text>
    <path
       transform="matrix(1.266777,0,0,1.3319255,-7.684503,305.35627)"
       style="fill:#ffe6d5;fill-opacity:1;fill-rule:evenodd;stroke:#ffccaa;stroke-width:3.07942724;stroke-linecap:round;stroke-linejoin:round;stroke-miterlimit:4;stroke-opacity:1;stroke-dashoffset:0"
       d="m 105.56926,55.234665 c 0,14.702091 -5.569663,26.913405 -27.989548,26.620491 -24.106611,-0.314951 -27.989544,-11.9184 -27.989544,-26.620491 0,-14.702091 12.531346,-26.620491 27.989544,-26.620491 15.458198,0 27.989548,11.9184 27.989548,26.620491 z"
       id="path3849-9"
       inkscape:connector-curvature="0"
       sodipodi:nodetypes="sssss" />
    <rect
       style="fill:#71c837;fill-opacity:1;fill-rule:evenodd;stroke:#5aa02c;stroke-width:5.23616647999999960;stroke-linecap:round;stroke-linejoin:round;stroke-miterlimit:4;stroke-opacity:1;stroke-dasharray:none;stroke-dashoffset:0"
       id="rect3851-9-3"
       width="87.991745"
       height="91.034088"
       x="158.85822"
       y="400.94766"
       rx="26.31819" />
    <path
       sodipodi:type="arc"
       style="fill:#ffe6d5;fill-opacity:1;fill-rule:evenodd;stroke:#ffccaa;stroke-width:3.07942719;stroke-linecap:round;stroke-linejoin:round;stroke-miterlimit:4;stroke-opacity:1;stroke-dasharray:none;stroke-dashoffset:0"
       id="path3849-9-8"
       sodipodi:cx="77.579712"
       sodipodi:cy="55.234665"
       sodipodi:rx="27.989544"
       sodipodi:ry="26.620491"
       d="m 105.56926,55.234665 a 27.989544,26.620491 0 1 1 -55.979092,0 27.989544,26.620491 0 1 1 55.979092,0 z"
       transform="matrix(1.266777,0,0,1.3319255,103.05674,305.35627)" />
    <rect
       style="fill:#2d5016;fill-opacity:1;fill-rule:evenodd;stroke:#17280b;stroke-width:5.23616647999999960;stroke-linecap:round;stroke-linejoin:round;stroke-miterlimit:4;stroke-opacity:1;stroke-dasharray:none;stroke-dashoffset:0"
       id="rect3851-9-3-9"
       width="87.991745"
       height="91.034088"
       x="278.11801"
       y="398.51379"
       rx="26.31819" />
    <path
       sodipodi:type="arc"
       style="fill:#ffe6d5;fill-opacity:1;fill-rule:evenodd;stroke:#ffccaa;stroke-width:3.07942719;stroke-linecap:round;stroke-linejoin:round;stroke-miterlimit:4;stroke-opacity:1;stroke-dasharray:none;stroke-dashoffset:0"
       id="path3849-9-8-8"
       sodipodi:cx="77.579712"
       sodipodi:cy="55.234665"
       sodipodi:rx="27.989544"
       sodipodi:ry="26.620491"
       d="m 105.56926,55.234665 a 27.989544,26.620491 0 1 1 -55.979092,0 27.989544,26.620491 0 1 1 55.979092,0 z"
       transform="matrix(1.266777,0,0,1.3319255,222.31655,302.92239)" />
    <rect
       style="fill:#c83737;fill-opacity:1;fill-rule:evenodd;stroke:#a02c2c;stroke-width:5.23616647999999960;stroke-linecap:round;stroke-linejoin:round;stroke-miterlimit:4;stroke-opacity:1;stroke-dasharray:none;stroke-dashoffset:0"
       id="rect3851-9-6"
       width="87.991745"
       height="91.034088"
       x="41.502884"
       y="686.51459"
       rx="26.31819" />
    <path
       sodipodi:type="arc"
       style="fill:#ffe6d5;fill-opacity:1;fill-rule:evenodd;stroke:#ffccaa;stroke-width:5;stroke-linecap:round;stroke-linejoin:round;stroke-miterlimit:4;stroke-opacity:1;stroke-dasharray:none;stroke-dashoffset:0"
       id="path3849-9-2"
       sodipodi:cx="77.579712"
       sodipodi:cy="55.234665"
       sodipodi:rx="27.989544"
       sodipodi:ry="26.620491"
       d="m 105.56926,55.234665 a 27.989544,26.620491 0 1 1 -55.979092,0 27.989544,26.620491 0 1 1 55.979092,0 z"
       transform="matrix(1.266777,0,0,1.3319255,-14.298592,590.92316)" />
    <rect
       style="fill:#ff2a2a;fill-opacity:1;fill-rule:evenodd;stroke:#ff0000;stroke-width:5.23616647999999960;stroke-linecap:round;stroke-linejoin:round;stroke-miterlimit:4;stroke-opacity:1;stroke-dasharray:none;stroke-dashoffset:0"
       id="rect3851-9-3-8"
       width="87.991745"
       height="91.034088"
       x="152.24413"
       y="686.51459"
       rx="26.31819" />
    <path
       sodipodi:type="arc"
       style="fill:#ffe6d5;fill-opacity:1;fill-rule:evenodd;stroke:#ffccaa;stroke-width:5;stroke-linecap:round;stroke-linejoin:round;stroke-miterlimit:4;stroke-opacity:1;stroke-dasharray:none;stroke-dashoffset:0"
       id="path3849-9-8-2"
       sodipodi:cx="77.579712"
       sodipodi:cy="55.234665"
       sodipodi:rx="27.989544"
       sodipodi:ry="26.620491"
       d="m 105.56926,55.234665 a 27.989544,26.620491 0 1 1 -55.979092,0 27.989544,26.620491 0 1 1 55.979092,0 z"
       transform="matrix(1.266777,0,0,1.3319255,96.442648,590.92316)" />
    <rect
       style="fill:#de8787;fill-opacity:1;fill-rule:evenodd;stroke:#d35f5f;stroke-width:5.23616647999999960;stroke-linecap:round;stroke-linejoin:round;stroke-miterlimit:4;stroke-opacity:1;stroke-dasharray:none;stroke-dashoffset:0"
       id="rect3851-9-3-9-2"
       width="87.991745"
       height="91.034088"
       x="271.50394"
       y="681.64679"
       rx="26.31819" />
    <path
       sodipodi:type="arc"
       style="fill:#ffe6d5;fill-opacity:1;fill-rule:evenodd;stroke:#ffccaa;stroke-width:5;stroke-linecap:round;stroke-linejoin:round;stroke-miterlimit:4;stroke-opacity:1;stroke-dasharray:none;stroke-dashoffset:0"
       id="path3849-9-8-8-7"
       sodipodi:cx="77.579712"
       sodipodi:cy="55.234665"
       sodipodi:rx="27.989544"
       sodipodi:ry="26.620491"
       d="m 105.56926,55.234665 a 27.989544,26.620491 0 1 1 -55.979092,0 27.989544,26.620491 0 1 1 55.979092,0 z"
       transform="matrix(1.266777,0,0,1.3319255,215.70247,586.0554)" />
    <rect
       style="fill:#ffe6d5;fill-opacity:1;fill-rule:evenodd;stroke:#ffccaa;stroke-width:5.23616648;stroke-linecap:round;stroke-linejoin:round;stroke-miterlimit:4;stroke-opacity:1;stroke-dasharray:none;stroke-dashoffset:0;display:inline"
       id="rect3851-4-4-1-5"
       width="87.991745"
       height="91.034088"
       x="598.54669"
       y="136.73538"
       rx="26.31819" />
    <text
       xml:space="preserve"
       style="font-size:72px;font-style:normal;font-variant:normal;font-weight:normal;font-stretch:normal;line-height:125%;letter-spacing:0px;word-spacing:0px;fill:#000000;fill-opacity:1;stroke:none;font-family:Franklin Gothic Demi;-inkscape-font-specification:Franklin Gothic Demi"
       x="163.993"
       y="78.416214"
       id="text4589"
       sodipodi:linespacing="125%"><tspan
         sodipodi:role="line"
         id="tspan4591"
         x="163.993"
         y="78.416214"
         style="font-style:normal;font-variant:normal;font-weight:normal;font-stretch:normal;fill:#aaccff;font-family:Freestyle Script;-inkscape-font-specification:Freestyle Script">Blue</tspan></text>
    <text
       xml:space="preserve"
       style="font-size:72px;font-style:normal;font-variant:normal;font-weight:normal;font-stretch:normal;line-height:125%;letter-spacing:0px;word-spacing:0px;fill:#000000;fill-opacity:1;stroke:none;display:inline;font-family:Franklin Gothic Demi;-inkscape-font-specification:Franklin Gothic Demi"
       x="155.85316"
       y="326.22433"
       id="text4589-8"
       sodipodi:linespacing="125%"><tspan
         sodipodi:role="line"
         id="tspan4591-2"
         x="155.85316"
         y="326.22433"
         style="font-style:normal;font-variant:normal;font-weight:normal;font-stretch:normal;fill:#cdde87;font-family:Freestyle Script;-inkscape-font-specification:Freestyle Script">Green</tspan></text>
    <text
       xml:space="preserve"
       style="font-size:72px;font-style:normal;font-variant:normal;font-weight:normal;font-stretch:normal;line-height:125%;letter-spacing:0px;word-spacing:0px;fill:#000000;fill-opacity:1;stroke:none;font-family:Franklin Gothic Demi;-inkscape-font-specification:Franklin Gothic Demi"
       x="195.33446"
       y="581.66638"
       id="text4614"
       sodipodi:linespacing="125%"><tspan
         sodipodi:role="line"
         id="tspan4616"
         x="195.33446"
         y="581.66638" /></text>
    <text
       xml:space="preserve"
       style="font-size:72px;font-style:normal;font-variant:normal;font-weight:normal;font-stretch:normal;line-height:125%;letter-spacing:0px;word-spacing:0px;fill:#000000;fill-opacity:1;stroke:none;display:inline;font-family:Franklin Gothic Demi;-inkscape-font-specification:Franklin Gothic Demi"
       x="170.96074"
       y="606.51447"
       id="text4589-8-7"
       sodipodi:linespacing="125%"><tspan
         sodipodi:role="line"
         id="tspan4591-2-8"
         x="170.96074"
         y="606.51447"
         style="font-style:normal;font-variant:normal;font-weight:normal;font-stretch:normal;fill:#c83737;font-family:Freestyle Script;-inkscape-font-specification:Freestyle Script">Red</tspan></text>
    <text
       xml:space="preserve"
       style="font-size:72px;font-style:normal;font-variant:normal;font-weight:normal;font-stretch:normal;line-height:125%;letter-spacing:0px;word-spacing:0px;fill:#80b3ff;fill-opacity:1;stroke:none;display:inline;font-family:Franklin Gothic Demi;-inkscape-font-specification:Franklin Gothic Demi"
       x="72.055557"
       y="454.10974"
       id="text3966-0"
       sodipodi:linespacing="125%"><tspan
         sodipodi:role="line"
         id="tspan3968-8"
         x="72.055557"
         y="454.10974"
         style="font-size:20px;fill:#c6e9af">Niall</tspan></text>
    <path
       style="fill:#a0a0a0;stroke:none"
       d="m 126.88369,378.55719 c -0.0979,-0.25507 -0.73022,-0.55207 -1.40522,-0.66 -1.37317,-0.21958 -1.14019,0.27566 -2.56065,-5.443 -0.41563,-1.67329 -1.04195,-4.68521 -1.39182,-6.69315 -0.95464,-5.47873 -1.19795,-5.86301 -3.39204,-5.35715 l -1.09476,0.2524 -0.50376,-4.06101 c -0.27706,-2.23355 -0.74277,-4.78143 -1.03488,-5.66195 -0.5058,-1.52461 -0.58176,-1.60094 -1.5932,-1.60094 -1.0442,0 -1.07686,0.0392 -1.9405,2.3278 l -0.87842,2.32779 -4.44842,2.1325 c -4.83683,2.31869 -6.21495,2.791 -8.151115,2.79359 -1.163744,0.002 -1.285471,-0.0741 -1.469843,-0.91353 -0.390256,-1.77683 -0.926904,-1.72236 -6.10274,0.61942 -3.414031,1.54465 -5.810276,2.40291 -8.510851,3.0483 -2.067396,0.49408 -3.844656,0.89832 -3.949469,0.89832 -0.104813,0 -0.09824,-0.73896 0.0146,-1.64213 0.177901,-1.42386 0.120155,-1.72714 -0.434459,-2.28175 -0.946146,-0.94615 -1.870497,-0.7895 -4.026892,0.68242 -1.953819,1.33365 -4.797399,2.44726 -7.192599,2.81679 -1.282465,0.19786 -1.296745,0.19022 -1.017594,-0.544 0.155719,-0.40957 0.706816,-1.41277 1.22466,-2.22932 0.517843,-0.81656 0.941534,-1.79529 0.941534,-2.17497 0,-1.34564 -2.107297,-1.61564 -3.455008,-0.44269 -0.703331,0.61213 -1.574691,2.306 -1.855473,3.60693 -0.132401,0.61345 -0.826777,1.59013 -1.838524,2.58599 -0.894172,0.88014 -1.670798,1.86646 -1.725836,2.19184 -0.138326,0.81776 1.105131,1.43317 2.117824,1.04814 0.416196,-0.15823 0.78735,-0.24964 0.824785,-0.20313 0.03744,0.0465 0.140699,0.65428 0.229474,1.3506 0.182845,1.43417 -0.08151,1.61239 -2.402957,1.62004 -1.478332,0.005 -1.696594,-0.33615 -1.435288,-2.24259 0.156255,-1.14 0.08678,-1.38565 -0.510189,-1.80378 -0.925451,-0.64821 -1.410735,-0.35217 -3.394082,2.0705 -2.207136,2.69602 -2.903395,2.64173 -1.918552,-0.14961 0.540769,-1.53271 0.570738,-4.89018 0.05703,-6.38892 -0.348759,-1.0175 -0.324379,-1.09237 0.548575,-1.68473 1.117454,-0.75827 1.289537,-1.48746 1.335924,-5.6609 0.04847,-4.36033 0.786369,-6.81084 2.490017,-8.2691 1.966773,-1.68348 3.972065,-1.83217 8.925283,-0.6618 3.744484,0.88477 4.825986,0.94048 5.483962,0.2825 0.955069,-0.95507 0.416126,-2.35175 -1.927191,-4.99436 -2.932344,-3.30687 -3.025754,-3.93789 -0.406962,-2.74921 1.538139,0.69818 2.867766,1.65638 5.591061,4.02925 1.110032,0.96719 2.155081,1.75853 2.322332,1.75853 0.357244,0 0.669266,-1.02142 0.675137,-2.2101 0.0023,-0.46257 -0.475238,-2.02992 -1.061161,-3.48298 -0.619488,-1.53631 -0.952418,-2.75484 -0.795543,-2.91172 0.381793,-0.38179 1.751732,0.39239 4.771489,2.69646 3.37392,2.57429 4.372465,3.16771 5.332597,3.1691 0.790304,0.001 1.7965,-0.81201 1.7965,-1.45182 0,-0.18713 -0.691232,-1.25347 -1.536075,-2.36966 -0.84484,-1.11619 -1.476655,-2.08886 -1.404032,-2.16148 0.07262,-0.0726 1.041214,-0.2827 2.152427,-0.46683 5.076412,-0.84119 15.367084,2.42598 20.692134,6.56951 0.99139,0.77142 1.88934,1.40259 1.99544,1.40259 0.1061,0 0.4586,-0.19429 0.78335,-0.43175 0.57774,-0.42245 0.57869,-0.4732 0.0444,-2.35781 -0.98136,-3.46145 -0.97262,-3.29592 -0.1737,-3.28791 1.08465,0.0109 4.02613,1.30829 5.9521,2.62531 2.01855,1.38033 5.06144,4.36494 7.16413,7.02691 1.4286,1.80859 1.56631,1.90146 2.81965,1.90146 1.22525,0 1.34131,0.0716 1.65446,1.02042 0.68351,2.07106 0.90169,7.58701 0.71778,18.14633 -0.18274,10.49243 -0.39271,12.72507 -1.22275,13.00175 -0.17496,0.0583 -0.3982,-0.10265 -0.49608,-0.35771 l 0,0 z"
       id="path4731"
       inkscape:connector-curvature="0" />
    <path
       style="fill:#a0a0a0;stroke:none"
       d="m 126.88369,378.55719 c -0.0979,-0.25507 -0.73022,-0.55207 -1.40522,-0.66 -1.37317,-0.21958 -1.14019,0.27566 -2.56065,-5.443 -0.41563,-1.67329 -1.04195,-4.68521 -1.39182,-6.69315 -0.95464,-5.47873 -1.19795,-5.86301 -3.39204,-5.35715 l -1.09476,0.2524 -0.50376,-4.06101 c -0.27706,-2.23355 -0.74277,-4.78143 -1.03488,-5.66195 -0.5058,-1.52461 -0.58176,-1.60094 -1.5932,-1.60094 -1.0442,0 -1.07686,0.0392 -1.9405,2.3278 l -0.87842,2.32779 -4.44842,2.1325 c -4.83683,2.31869 -6.21495,2.791 -8.151115,2.79359 -1.163744,0.002 -1.285471,-0.0741 -1.469843,-0.91353 -0.390256,-1.77683 -0.926904,-1.72236 -6.10274,0.61942 -3.414031,1.54465 -5.810276,2.40291 -8.510851,3.0483 -2.067396,0.49408 -3.844656,0.89832 -3.949469,0.89832 -0.104813,0 -0.09824,-0.73896 0.0146,-1.64213 0.177901,-1.42386 0.120155,-1.72714 -0.434459,-2.28175 -0.946146,-0.94615 -1.870497,-0.7895 -4.026892,0.68242 -1.953819,1.33365 -4.797399,2.44726 -7.192599,2.81679 -1.282465,0.19786 -1.296745,0.19022 -1.017594,-0.544 0.155719,-0.40957 0.706816,-1.41277 1.22466,-2.22932 0.517843,-0.81656 0.941534,-1.79529 0.941534,-2.17497 0,-1.34564 -2.107297,-1.61564 -3.455008,-0.44269 -0.703331,0.61213 -1.574691,2.306 -1.855473,3.60693 -0.132401,0.61345 -0.826777,1.59013 -1.838524,2.58599 -0.894172,0.88014 -1.670798,1.86646 -1.725836,2.19184 -0.138326,0.81776 1.105131,1.43317 2.117824,1.04814 0.416196,-0.15823 0.78735,-0.24964 0.824785,-0.20313 0.03744,0.0465 0.140699,0.65428 0.229474,1.3506 0.182845,1.43417 -0.08151,1.61239 -2.402957,1.62004 -1.478332,0.005 -1.696594,-0.33615 -1.435288,-2.24259 0.156255,-1.14 0.08678,-1.38565 -0.510189,-1.80378 -0.925451,-0.64821 -1.410735,-0.35217 -3.394082,2.0705 -2.207136,2.69602 -2.903395,2.64173 -1.918552,-0.14961 0.540769,-1.53271 0.570738,-4.89018 0.05703,-6.38892 -0.348759,-1.0175 -0.324379,-1.09237 0.548575,-1.68473 1.117454,-0.75827 1.289537,-1.48746 1.335924,-5.6609 0.04847,-4.36033 0.786369,-6.81084 2.490017,-8.2691 1.966773,-1.68348 3.972065,-1.83217 8.925283,-0.6618 3.744484,0.88477 4.825986,0.94048 5.483962,0.2825 0.955069,-0.95507 0.416126,-2.35175 -1.927191,-4.99436 -2.069981,-2.33437 -2.696312,-3.35035 -2.06542,-3.35035 0.996638,0 4.215523,1.98059 6.659519,4.09762 1.454847,1.26022 2.773707,2.2913 2.9308,2.2913 0.34085,0 0.650907,-1.04353 0.656669,-2.2101 0.0023,-0.46257 -0.475238,-2.02992 -1.061161,-3.48298 -0.619488,-1.53631 -0.952418,-2.75484 -0.795543,-2.91172 0.381793,-0.38179 1.751732,0.39239 4.771489,2.69646 3.37392,2.57429 4.372465,3.16771 5.332597,3.1691 0.790304,0.001 1.7965,-0.81201 1.7965,-1.45182 0,-0.18713 -0.691232,-1.25347 -1.536075,-2.36966 -0.84484,-1.11619 -1.476655,-2.08886 -1.404032,-2.16148 0.07262,-0.0726 1.041214,-0.2827 2.152427,-0.46683 5.076412,-0.84119 15.367084,2.42598 20.692134,6.56951 0.99139,0.77142 1.88934,1.40259 1.99544,1.40259 0.1061,0 0.4586,-0.19429 0.78335,-0.43175 0.57774,-0.42245 0.57869,-0.4732 0.0444,-2.35781 -0.98136,-3.46145 -0.97262,-3.29592 -0.1737,-3.28791 1.08465,0.0109 4.02613,1.30829 5.9521,2.62531 2.01855,1.38033 5.06144,4.36494 7.16413,7.02691 1.4286,1.80859 1.56631,1.90146 2.81965,1.90146 1.22525,0 1.34131,0.0716 1.65446,1.02042 0.68351,2.07106 0.90169,7.58701 0.71778,18.14633 -0.18274,10.49243 -0.39271,12.72507 -1.22275,13.00175 -0.17496,0.0583 -0.3982,-0.10265 -0.49608,-0.35771 l 0,0 z"
       id="path4733"
       inkscape:connector-curvature="0" />
    <path
       style="fill:#a0a0a0;stroke:none"
       d="m 126.88369,378.55719 c -0.0979,-0.25507 -0.73022,-0.55207 -1.40522,-0.66 -1.37317,-0.21958 -1.14019,0.27566 -2.56065,-5.443 -0.41563,-1.67329 -1.04195,-4.68521 -1.39182,-6.69315 -0.95464,-5.47873 -1.19795,-5.86301 -3.39204,-5.35715 l -1.09476,0.2524 -0.50376,-4.06101 c -0.27706,-2.23355 -0.74277,-4.78143 -1.03488,-5.66195 -0.5058,-1.52461 -0.58176,-1.60094 -1.5932,-1.60094 -1.0442,0 -1.07686,0.0392 -1.9405,2.3278 l -0.87842,2.32779 -4.44842,2.1325 c -4.83683,2.31869 -6.21495,2.791 -8.151115,2.79359 -1.163744,0.002 -1.285471,-0.0741 -1.469843,-0.91353 -0.390256,-1.77683 -0.926904,-1.72236 -6.10274,0.61942 -3.414031,1.54465 -5.810276,2.40291 -8.510851,3.0483 -2.067396,0.49408 -3.844656,0.89832 -3.949469,0.89832 -0.104813,0 -0.09824,-0.73896 0.0146,-1.64213 0.177901,-1.42386 0.120155,-1.72714 -0.434459,-2.28175 -0.946147,-0.94615 -1.870498,-0.7895 -4.026894,0.68242 -1.951627,1.33216 -4.797253,2.44728 -7.184875,2.81555 -0.711148,0.10969 -1.292919,0.0793 -1.292825,-0.0676 9.4e-5,-0.14688 0.547638,-1.15694 1.216766,-2.24458 0.669127,-1.08764 1.216672,-2.28074 1.216766,-2.65134 3.35e-4,-1.33061 -2.115742,-1.59165 -3.454837,-0.4262 -0.703331,0.61213 -1.574691,2.306 -1.855473,3.60693 -0.132401,0.61345 -0.826777,1.59013 -1.838524,2.58599 -0.894172,0.88014 -1.670798,1.86646 -1.725836,2.19184 -0.138326,0.81776 1.105131,1.43317 2.117824,1.04814 0.416196,-0.15823 0.78735,-0.24964 0.824785,-0.20313 0.03744,0.0465 0.140699,0.65428 0.229474,1.3506 0.182845,1.43417 -0.08151,1.61239 -2.402957,1.62004 -1.478332,0.005 -1.696594,-0.33615 -1.435288,-2.24259 0.156255,-1.14 0.08678,-1.38565 -0.510189,-1.80378 -0.925451,-0.64821 -1.410735,-0.35217 -3.394082,2.0705 -2.207136,2.69602 -2.903395,2.64173 -1.918552,-0.14961 0.540769,-1.53271 0.570738,-4.89018 0.05703,-6.38892 -0.348759,-1.0175 -0.324379,-1.09237 0.548575,-1.68473 1.117454,-0.75827 1.289537,-1.48746 1.335924,-5.6609 0.0468,-4.21046 0.790682,-6.78872 2.354966,-8.16218 0.602361,-0.52888 1.431168,-1.08933 1.841794,-1.24545 1.277662,-0.48577 3.869518,-0.31459 7.21854,0.47673 3.744484,0.88477 4.825986,0.94048 5.483962,0.2825 0.955069,-0.95507 0.416126,-2.35175 -1.927191,-4.99436 -2.069981,-2.33437 -2.696312,-3.35035 -2.06542,-3.35035 0.996638,0 4.215523,1.98059 6.659519,4.09762 1.454847,1.26022 2.773707,2.2913 2.9308,2.2913 0.34085,0 0.650907,-1.04353 0.656669,-2.2101 0.0023,-0.46257 -0.475238,-2.02992 -1.061161,-3.48298 -0.619488,-1.53631 -0.952418,-2.75484 -0.795543,-2.91172 0.381793,-0.38179 1.751732,0.39239 4.771489,2.69646 3.37392,2.57429 4.372465,3.16771 5.332597,3.1691 0.790304,0.001 1.7965,-0.81201 1.7965,-1.45182 0,-0.18713 -0.691232,-1.25347 -1.536075,-2.36966 -0.84484,-1.11619 -1.476655,-2.08886 -1.404032,-2.16148 0.07262,-0.0726 1.041214,-0.2827 2.152427,-0.46683 5.076412,-0.84119 15.367084,2.42598 20.692134,6.56951 0.99139,0.77142 1.88934,1.40259 1.99544,1.40259 0.1061,0 0.4586,-0.19429 0.78335,-0.43175 0.57774,-0.42245 0.57869,-0.4732 0.0444,-2.35781 -0.98136,-3.46145 -0.97262,-3.29592 -0.1737,-3.28791 1.08465,0.0109 4.02613,1.30829 5.9521,2.62531 2.01855,1.38033 5.06144,4.36494 7.16413,7.02691 1.4286,1.80859 1.56631,1.90146 2.81965,1.90146 1.22525,0 1.34131,0.0716 1.65446,1.02042 0.68351,2.07106 0.90169,7.58701 0.71778,18.14633 -0.18274,10.49243 -0.39271,12.72507 -1.22275,13.00175 -0.17496,0.0583 -0.3982,-0.10265 -0.49608,-0.35771 l 0,0 z"
       id="path4735"
       inkscape:connector-curvature="0" />
    <path
       sodipodi:type="arc"
       style="fill:none;stroke:#000000;stroke-width:7.61671019;stroke-linecap:round;stroke-linejoin:round;stroke-miterlimit:4;stroke-opacity:1;stroke-dasharray:none;stroke-dashoffset:0"
       id="path4740"
       sodipodi:cx="-35.899632"
       sodipodi:cy="374.37631"
       sodipodi:rx="15.820177"
       sodipodi:ry="14.14689"
       d="m -20.079454,374.37631 a 15.820177,14.14689 0 1 1 -31.640355,0 15.820177,14.14689 0 1 1 31.640355,0 z"
       transform="matrix(0.12905377,0,0,0.13356554,129.97746,338.67155)" />
    <text
       xml:space="preserve"
       style="font-size:72px;font-style:normal;font-variant:normal;font-weight:normal;font-stretch:normal;line-height:125%;letter-spacing:0px;word-spacing:0px;fill:#80b3ff;fill-opacity:1;stroke:none;display:inline;font-family:Franklin Gothic Demi;-inkscape-font-specification:Franklin Gothic Demi"
       x="182.23552"
       y="456.76514"
       id="text3966-0-1"
       sodipodi:linespacing="125%"><tspan
         sodipodi:role="line"
         id="tspan3968-8-7"
         x="182.23552"
         y="456.76514"
         style="font-size:20px;fill:#c6e9af">Dara</tspan></text>
    <text
       xml:space="preserve"
       style="font-size:72px;font-style:normal;font-variant:normal;font-weight:normal;font-stretch:normal;line-height:125%;letter-spacing:0px;word-spacing:0px;fill:#80b3ff;fill-opacity:1;stroke:none;display:inline;font-family:Franklin Gothic Demi;-inkscape-font-specification:Franklin Gothic Demi"
       x="298.34235"
       y="456.62842"
       id="text3966-0-1-4"
       sodipodi:linespacing="125%"><tspan
         sodipodi:role="line"
         id="tspan3968-8-7-0"
         x="298.34235"
         y="456.62842"
         style="font-size:20px;fill:#c6e9af">Pavel</tspan></text>
  </g>
  <g
     inkscape:groupmode="layer"
     id="layer3"
     inkscape:label="LayerHalf"
     style="display:inline">
    <path
       style="fill:#1a1a1a;fill-opacity:1;stroke:#000000;stroke-width:2;stroke-linecap:butt;stroke-linejoin:miter;stroke-miterlimit:4;stroke-opacity:1;stroke-dasharray:none"
       d="m 59.639117,133.78222 c 0.0612,6.16304 2.89738,17.80486 6.38891,21.29639 0.22144,0.22144 0.415,-2.82082 0.91271,-1.8254 1.60649,3.21299 3.32673,8.19447 5.47621,10.34396 0.79768,0.79768 1.26333,-1.77902 1.52117,-1.52117 2.02445,2.02444 3.01141,7.28615 5.47622,8.51856 1.58288,0.79144 1.02093,-2.22764 2.43387,-1.52118 1.88816,0.94409 3.56652,4.06502 5.78045,5.17199 1.46249,0.73124 2.78999,-2.70352 4.56351,-1.52117 1.60856,1.07237 3.42227,3.91719 6.38892,2.43387 4.130903,-2.06545 9.513053,-1.40995 13.386303,-3.34658 0.68599,-0.34299 4.54654,-2.75508 4.56352,-2.73811 1.89956,1.89957 -1.35713,7.2196 -0.30424,6.69316 5.03611,-2.51805 8.70701,-9.80815 10.6482,-13.69054 1.48546,-2.97091 2.8392,-0.37131 4.25928,-2.73811 3.42681,-5.71136 11.69545,-29.12053 3.95504,-33.16152 -6.89386,-3.59905 -8.72833,16.23972 -9.43126,17.64558 -0.5353,1.07061 -2.88575,-2.59047 -3.65081,-1.82541 -0.14065,0.14066 -3.8494,9.12703 -3.95504,9.12703 -1.48448,0 -5.3789,-7.23658 -7.30163,-7.91009 -5.96659,-2.09004 -15.738283,0.65293 -22.817553,1.52117 -2.693,0.33029 -2.63466,6.28546 -3.95505,7.60586 -1.25872,1.25871 -4.14996,-7.5512 -4.86775,-7.91009 -0.92255,-0.46128 0.24126,6.50955 -1.21694,5.78045 -2.50941,-1.25471 -6.29439,-8.93797 -7.60585,-11.5609 -0.39378,-0.78757 -1.01354,-14.19816 -7.60585,-11.86514 -2.30403,0.8154 -1.60333,4.59904 -3.04234,6.99739 z"
       id="path3887"
       inkscape:connector-curvature="0"
       sodipodi:nodetypes="ccssssssssscssssscssssssssc" />
    <rect
       style="fill:#ffe6d5;fill-opacity:1;fill-rule:evenodd;stroke:#000000;stroke-width:2;stroke-linecap:round;stroke-linejoin:round;stroke-miterlimit:4;stroke-opacity:1;stroke-dasharray:none;stroke-dashoffset:0"
       id="rect3890"
       width="19.166754"
       height="7.6058545"
       x="90.366776"
       y="150.51511"
       rx="2.7" />
    <path
       style="fill:none;stroke:#000000;stroke-width:1.5;stroke-linecap:round;stroke-linejoin:miter;stroke-miterlimit:4;stroke-opacity:1;stroke-dasharray:none"
       d="m 94.250617,154.72815 c 1.68197,-0.01 7.483973,0.69823 11.780753,-1.51779"
       id="path3892"
       inkscape:connector-curvature="0"
       sodipodi:nodetypes="cc" />
    <path
       sodipodi:type="arc"
       style="fill:#1a1a1a;fill-opacity:1;fill-rule:evenodd;stroke:#000000;stroke-width:2;stroke-linecap:round;stroke-linejoin:round;stroke-miterlimit:4;stroke-opacity:1;stroke-dasharray:none;stroke-dashoffset:0"
       id="path3894"
       sodipodi:cx="149.02856"
       sodipodi:cy="53.854618"
       sodipodi:rx="2.5277312"
       sodipodi:ry="4.5176473"
       d="m 151.5563,53.854618 a 2.5277312,4.5176473 0 1 1 -5.05547,0 2.5277312,4.5176473 0 1 1 5.05547,0 z"
       transform="translate(-58.406913,79.000743)" />
    <path
       sodipodi:type="arc"
       style="fill:#1a1a1a;fill-opacity:1;fill-rule:evenodd;stroke:#000000;stroke-width:2;stroke-linecap:round;stroke-linejoin:round;stroke-miterlimit:4;stroke-opacity:1;stroke-dasharray:none;stroke-dashoffset:0"
       id="path3894-1"
       sodipodi:cx="149.02856"
       sodipodi:cy="53.854618"
       sodipodi:rx="2.5277312"
       sodipodi:ry="4.5176473"
       d="m 151.5563,53.854618 a 2.5277312,4.5176473 0 1 1 -5.05547,0 2.5277312,4.5176473 0 1 1 5.05547,0 z"
       transform="translate(-43.401863,78.785617)" />
    <rect
       style="fill:#d7f4ee;fill-opacity:0.39153436;fill-rule:evenodd;stroke:#4d4d4d;stroke-width:2;stroke-linecap:round;stroke-linejoin:round;stroke-miterlimit:4;stroke-opacity:1;stroke-dasharray:none;stroke-dashoffset:0"
       id="rect3973"
       width="20.634193"
       height="16.7367"
       x="177.95811"
       y="120.36784"
       rx="3.6860535" />
    <rect
       style="fill:#d7f4ee;fill-opacity:0.39153436;fill-rule:evenodd;stroke:#4d4d4d;stroke-width:2;stroke-linecap:round;stroke-linejoin:round;stroke-miterlimit:4;stroke-opacity:1;stroke-dasharray:none;stroke-dashoffset:0;display:inline"
       id="rect3973-8"
       width="20.634193"
       height="16.7367"
       x="208.9478"
       y="120.57229"
       rx="3.6860535" />
    <path
       style="fill:none;stroke:#4d4d4d;stroke-width:2;stroke-linecap:round;stroke-linejoin:miter;stroke-miterlimit:4;stroke-opacity:1;stroke-dasharray:none"
       d="m 198.6408,129.60635 c 1.70959,-3.36347 6.61365,-5.35855 9.99653,-0.10468"
       id="path3993"
       inkscape:connector-curvature="0"
       sodipodi:nodetypes="cc" />
    <path
       sodipodi:type="arc"
       style="fill:#1a1a1a;fill-opacity:1;fill-rule:evenodd;stroke:#000000;stroke-width:2;stroke-linecap:round;stroke-linejoin:round;stroke-miterlimit:4;stroke-opacity:1;stroke-dasharray:none;stroke-dashoffset:0;display:inline"
       id="path3894-2"
       sodipodi:cx="149.02856"
       sodipodi:cy="53.854618"
       sodipodi:rx="2.5277312"
       sodipodi:ry="4.5176473"
       d="m 151.5563,53.854618 a 2.5277312,4.5176473 0 1 1 -5.05547,0 2.5277312,4.5176473 0 1 1 5.05547,0 z"
       transform="translate(41.838817,74.863184)" />
    <path
       sodipodi:type="arc"
       style="fill:#1a1a1a;fill-opacity:1;fill-rule:evenodd;stroke:#000000;stroke-width:2;stroke-linecap:round;stroke-linejoin:round;stroke-miterlimit:4;stroke-opacity:1;stroke-dasharray:none;stroke-dashoffset:0;display:inline"
       id="path3894-1-4"
       sodipodi:cx="149.02856"
       sodipodi:cy="53.854618"
       sodipodi:rx="2.5277312"
       sodipodi:ry="4.5176473"
       d="m 151.5563,53.854618 a 2.5277312,4.5176473 0 1 1 -5.05547,0 2.5277312,4.5176473 0 1 1 5.05547,0 z"
       transform="translate(67.187817,74.952292)" />
    <path
       style="fill:none;stroke:#000000;stroke-width:1.5;stroke-linecap:round;stroke-linejoin:miter;stroke-miterlimit:4;stroke-opacity:1;stroke-dasharray:none;display:inline"
       d="m 198.99446,152.55158 c 10.69541,2.62763 10.11002,1.61601 13.30192,0.003"
       id="path3892-1"
       inkscape:connector-curvature="0"
       sodipodi:nodetypes="cc" />
    <path
       style="fill:none;stroke:#ffccaa;stroke-width:2;stroke-linecap:round;stroke-linejoin:miter;stroke-miterlimit:4;stroke-opacity:1;stroke-dasharray:none;display:inline"
       d="m 199.07034,140.13971 c 1.24623,1.3928 5.30289,3.44083 9.85579,0.002"
       id="path3892-1-7"
       inkscape:connector-curvature="0"
       sodipodi:nodetypes="cc" />
    <path
       style="fill:none;stroke:#2b2200;stroke-width:1px;stroke-linecap:butt;stroke-linejoin:miter;stroke-opacity:1"
       d="M 210.73576,117.4497 C 225.57217,116.14686 226.4,115.91196 226.4,115.91196"
       id="path4205"
       inkscape:connector-curvature="0" />
    <path
       style="fill:none;stroke:#2b2200;stroke-width:1px;stroke-linecap:butt;stroke-linejoin:miter;stroke-opacity:1;display:inline"
       d="m 179.73137,116.5665 c 6.26916,-0.27333 10.04557,-0.46669 12.31687,-0.59894 3.11945,-0.18165 3.39985,-0.24803 3.39985,-0.24803"
       id="path4205-5"
       inkscape:connector-curvature="0"
       sodipodi:nodetypes="csc" />
    <path
       style="fill:#554400;stroke:#2b2200;stroke-width:3;stroke-linecap:round;stroke-linejoin:round;stroke-miterlimit:4;stroke-opacity:1;stroke-dasharray:none;display:inline"
       d="m 285.55593,107.17571 c -1.0168,4.0672 -2.09769,4.04911 -4.70166,6.65307 -1.98894,1.98895 -3.38349,11.78881 -3.38349,14.78146 0,1.26581 0.45637,-5.93258 -0.9127,-4.56351 -1.92817,1.92817 1.01506,10.4449 -1.8254,11.86513 -0.5537,0.27685 -1.54947,-3.62251 -1.82541,-3.34657 -0.5227,0.52269 -0.10105,6.38891 -0.30423,6.38891 -1.09368,0 -1.97636,-9.12006 -2.12964,-10.03972 -0.42631,-2.55784 -1.20888,2.12963 -0.9127,2.12963 0.25162,0 -1.21694,-4.20148 -1.21694,-7.30162 0,-7.54953 3.97128,-12.59808 5.78045,-20.38369 -1.01236,-2.59792 0.34724,-5.997077 1.8254,-8.214319 0.27814,-0.417205 1.50021,-2.444355 2.12964,-2.129639 0.60847,0.304234 0.91271,2.505693 0.91271,1.825405 0,-10.840849 -6.11116,-5.78045 4.25927,-5.78045 1.44121,0 -4.22375,-5.037623 -2.7381,-5.780449 1.73889,-0.869446 6.26593,2.252625 7.30162,1.216937 0.57367,-0.57367 -0.78707,-2.237107 0,-2.433874 2.50056,-0.625142 13.63546,-0.05507 15.51594,1.825405 0.0585,0.05846 0.90466,-2.740118 3.34658,-2.129639 2.25848,0.564622 7.59828,3.643239 8.82279,4.867747 0.90705,0.907051 -0.0275,-3.961926 1.21693,-3.65081 1.88958,0.472395 6.0797,2.124652 6.99739,3.042342 0.87343,0.873434 0.41092,-3.901702 0.9127,-3.65081 5.09301,2.546506 13.84758,12.824415 14.95072,17.236951"
       id="path4237"
       inkscape:connector-curvature="0"
       sodipodi:nodetypes="cssssssssscssssssscsssssc" />
    <path
       style="fill:#554400;stroke:#2b2200;stroke-width:3;stroke-linecap:round;stroke-linejoin:round;stroke-miterlimit:4;stroke-opacity:1;stroke-dasharray:none;display:inline"
       d="m 285.75259,106.90522 c 11.53681,3.26779 25.3825,-5.06759 34.91945,-5.06759 2.80031,0.27027 2.84901,3.24991 4.86774,4.25928 0.83101,0.4155 0.19281,-4.02933 1.21694,-3.34657 2.5547,1.70312 4.51191,2.66547 4.84613,5.56532 0.71316,6.18773 7.97986,4.87599 6.1063,13.29719 -0.2277,1.02345 2.22199,-4.339 2.12964,-3.34657 -0.33955,3.64886 0.34919,9.25289 1.39516,12.18149 0.599,-9.56023 3.16372,1.82488 4.38529,-1.22906 0.74104,-1.85259 -0.16187,-6.22704 1.21694,-7.60586 0.54611,-0.54611 1.68503,2.12964 0.9127,2.12964 -0.0371,0 0.0515,-2.58348 0,-2.7381 -0.6772,-2.03161 -1.29748,-3.97297 -1.82541,-6.08469 -1.83172,-7.32691 -1.4788,-10.29034 -6.39787,-15.546517"
       id="path4241"
       inkscape:connector-curvature="0"
       sodipodi:nodetypes="ccssssscssscsc" />
    <path
       style="fill:none;stroke:#2b2200;stroke-width:1.5;stroke-linecap:round;stroke-linejoin:round;stroke-miterlimit:4;stroke-opacity:1;stroke-dasharray:none"
       d="m 290.40074,91.037319 c -2.81905,-5.43147 -2.69124,-4.717931 1.36905,-2.281756"
       id="path4249"
       inkscape:connector-curvature="0" />
    <path
       style="fill:none;stroke:#2b2200;stroke-width:1.5;stroke-linecap:round;stroke-linejoin:round;stroke-miterlimit:4;stroke-opacity:1;stroke-dasharray:none"
       d="m 295.87695,98.795291 c 2.58818,0.836691 4.06165,3.301059 5.78045,5.019859"
       id="path4251"
       inkscape:connector-curvature="0" />
    <path
       style="fill:none;stroke:#2b2200;stroke-width:1.5;stroke-linecap:round;stroke-linejoin:round;stroke-miterlimit:4;stroke-opacity:1;stroke-dasharray:none"
       d="m 314.58735,93.319076 c 0.0367,0.02733 -1.24041,-4.955544 -1.06482,-4.867747 3.02428,1.512136 6.03601,4.971181 8.06221,6.997386"
       id="path4253"
       inkscape:connector-curvature="0" />
    <path
       sodipodi:type="arc"
       style="fill:#1a1a1a;fill-opacity:1;fill-rule:evenodd;stroke:#000000;stroke-width:2;stroke-linecap:round;stroke-linejoin:round;stroke-miterlimit:4;stroke-opacity:1;stroke-dasharray:none;stroke-dashoffset:0;display:inline"
       id="path3894-1-4-8"
       sodipodi:cx="149.02856"
       sodipodi:cy="53.854618"
       sodipodi:rx="2.5277312"
       sodipodi:ry="4.5176473"
       d="m 151.5563,53.854618 a 2.5277312,4.5176473 0 1 1 -5.05547,0 2.5277312,4.5176473 0 1 1 5.05547,0 z"
       transform="translate(147.76109,68.518819)" />
    <path
       sodipodi:type="arc"
       style="fill:#1a1a1a;fill-opacity:1;fill-rule:evenodd;stroke:#000000;stroke-width:2;stroke-linecap:round;stroke-linejoin:round;stroke-miterlimit:4;stroke-opacity:1;stroke-dasharray:none;stroke-dashoffset:0;display:inline"
       id="path3894-1-4-8-8"
       sodipodi:cx="149.02856"
       sodipodi:cy="53.854618"
       sodipodi:rx="2.5277312"
       sodipodi:ry="4.5176473"
       d="m 151.5563,53.854618 a 2.5277312,4.5176473 0 1 1 -5.05547,0 2.5277312,4.5176473 0 1 1 5.05547,0 z"
       transform="translate(164.18973,68.51882)" />
    <path
       style="fill:#ffffff;fill-opacity:1;fill-rule:evenodd;stroke:#000000;stroke-width:2;stroke-linecap:round;stroke-linejoin:round;stroke-miterlimit:4;stroke-opacity:1;stroke-dasharray:none;stroke-dashoffset:0"
       d="m 315.65216,145.64735 c 3.8e-4,2.60362 -2.81508,3.50893 -9.65944,4.71563 -10.67202,1.88155 -9.65943,-2.11126 -9.65943,-4.71563 0,-2.60437 -8.7003,-2.91741 9.65943,-4.71563 9.28091,-0.90901 9.65906,2.11126 9.65944,4.71563 z"
       id="path4291"
       inkscape:connector-curvature="0"
       sodipodi:nodetypes="sssss" />
    <path
       style="fill:#000000;stroke:#000000;stroke-width:1px;stroke-linecap:butt;stroke-linejoin:miter;stroke-opacity:1"
       d="m 297.09389,145.79947 c 6.37986,0.78578 12.36694,-1.52117 18.10193,-1.52117"
       id="path4296"
       inkscape:connector-curvature="0"
       sodipodi:nodetypes="cc" />
    <path
       style="fill:none;stroke:#2b2200;stroke-width:1.5;stroke-linecap:round;stroke-linejoin:round;stroke-miterlimit:4;stroke-opacity:1;stroke-dasharray:none"
       d="m 288.53713,115.39324 c 3.15518,-4.54507 6.31037,-3.71562 9.46555,-4.51764"
       id="path4302"
       inkscape:connector-curvature="0"
       sodipodi:nodetypes="cc" />
    <path
       style="fill:none;stroke:#2b2200;stroke-width:1.5;stroke-linecap:round;stroke-linejoin:round;stroke-miterlimit:4;stroke-opacity:1;stroke-dasharray:none;display:inline"
       d="m 308.56777,114.33909 c 4.04038,-0.52538 8.37409,-2.84792 10.42585,1.1434"
       id="path4302-1"
       inkscape:connector-curvature="0"
       sodipodi:nodetypes="cc" />
    <path
       style="fill:none;stroke:#deaa87;stroke-width:2;stroke-linecap:round;stroke-linejoin:miter;stroke-miterlimit:4;stroke-opacity:1;stroke-dasharray:none;display:inline"
       d="m 298.95701,132.25238 c 1.24623,1.3928 5.30289,3.44083 9.85579,0.002"
       id="path3892-1-7-2"
       inkscape:connector-curvature="0"
       sodipodi:nodetypes="cc" />
    <path
       style="fill:#1a1a1a;stroke:#1a1a1a;stroke-width:0.5;stroke-miterlimit:4;stroke-opacity:1;stroke-dasharray:none"
       d="m 300.42028,149.76424 c -1.16158,-0.0844 -1.98753,-0.34815 -2.45741,-0.78471 -0.38832,-0.36077 -0.53715,-0.82415 -0.57102,-1.77784 l -0.0305,-0.85789 0.33153,0.0593 c 0.18234,0.0326 1.2043,0.0567 2.27102,0.0534 2.50228,-0.008 3.80492,-0.15033 8.93688,-0.97982 1.7968,-0.29042 3.72981,-0.53212 4.92479,-0.61578 l 0.74157,-0.0519 0.015,0.33229 c 0.0276,0.61111 -0.0242,1.0029 -0.17051,1.28968 -0.43688,0.85636 -2.01892,1.53961 -5.16859,2.23222 -2.69222,0.59202 -5.31429,1.01005 -6.73118,1.07314 -0.50199,0.0224 -1.01538,0.0496 -1.14088,0.0605 -0.1255,0.0109 -0.55332,-0.004 -0.95073,-0.0326 z"
       id="path4340"
       inkscape:connector-curvature="0" />
    <path
       sodipodi:type="arc"
       style="fill:#1a1a1a;fill-opacity:1;fill-rule:evenodd;stroke:#000000;stroke-width:2;stroke-linecap:round;stroke-linejoin:round;stroke-miterlimit:4;stroke-opacity:1;stroke-dasharray:none;stroke-dashoffset:0;display:inline"
       id="path3894-0"
       sodipodi:cx="149.02856"
       sodipodi:cy="53.854618"
       sodipodi:rx="2.5277312"
       sodipodi:ry="4.5176473"
       d="m 151.5563,53.854618 a 2.5277312,4.5176473 0 1 1 -5.05547,0 2.5277312,4.5176473 0 1 1 5.05547,0 z"
       transform="translate(-68.303178,321.69408)" />
    <path
       sodipodi:type="arc"
       style="fill:#1a1a1a;fill-opacity:1;fill-rule:evenodd;stroke:#000000;stroke-width:2;stroke-linecap:round;stroke-linejoin:round;stroke-miterlimit:4;stroke-opacity:1;stroke-dasharray:none;stroke-dashoffset:0;display:inline"
       id="path3894-1-2"
       sodipodi:cx="149.02856"
       sodipodi:cy="53.854618"
       sodipodi:rx="2.5277312"
       sodipodi:ry="4.5176473"
       d="m 151.5563,53.854618 a 2.5277312,4.5176473 0 1 1 -5.05547,0 2.5277312,4.5176473 0 1 1 5.05547,0 z"
       transform="translate(-53.298128,321.47895)" />
    <path
       style="fill:none;stroke:#000000;stroke-width:1.5;stroke-linecap:butt;stroke-linejoin:miter;stroke-miterlimit:4;stroke-opacity:1;stroke-dasharray:none"
       d="m 78.019291,395.1028 c 3.017223,1.94456 4.299982,5.05219 18.287599,-0.35955"
       id="path4704"
       inkscape:connector-curvature="0"
       sodipodi:nodetypes="cc" />
  </g>
  <g
     inkscape:groupmode="layer"
     id="layer2"
     inkscape:label="Layer1"
     style="display:inline">
    <path
       style="fill:#1a1a1a;fill-opacity:1;stroke:#000000;stroke-width:3;stroke-linecap:butt;stroke-linejoin:miter;stroke-miterlimit:4;stroke-opacity:1;stroke-dasharray:none"
       d="m 59.030637,107.31385 c -3.68464,7.83691 -1.49369,27.58408 1.82541,25.8599 0.27889,-0.14487 1.56369,-1.56369 1.82541,-1.8254 3.60711,-3.60712 7.99337,-6.6035 12.16937,-9.7355 1.24765,5.02255 -5.47045,6.57204 1.8254,7.30162 9.19183,0.91919 17.06202,-6.48855 19.16675,-14.90747 3.03678,9.20982 -1.10106,11.23415 6.693163,5.17198 1.94856,-1.51555 4.5957,-3.07454 5.78044,-4.25928 0.32939,1.48138 1.16067,4.12385 0.60847,5.78045 -0.18699,0.56098 -1.4416,1.25672 -0.9127,1.52117 4.46382,2.23191 11.04182,-4.04443 13.08207,-6.08468 2.45362,0.70242 4.96527,15.21171 7.60585,15.21171 0.32989,0 1.05804,-13.00455 1.82541,-4.56352 0.25576,2.8134 2.39975,9.49951 0.9127,12.47361 -0.15589,0.31178 -0.805,3.95504 -0.60847,3.95504 0.26821,0 4.36722,-5.46643 4.56352,-5.17198 2.25509,3.38264 1.93779,15.17876 4.25928,8.21432 0.75347,-2.26042 2.20469,-3.95104 2.7381,-6.08468 0.97159,1.43396 1.55146,3.98533 2.73811,5.17198 0.0119,0.0119 0.30423,-5.45689 0.30423,-9.73549 0,-7.70335 -1.93814,-14.82872 -5.17198,-21.2964 7.43125,4.28012 1.93345,-9.82364 0.30424,-13.08207 15.00573,-4.569189 -6.92438,-5.018641 -11.86514,-3.042337 3.68044,-7.386527 0.0625,-18.199736 -3.34657,-4.563513 -2.92983,-3.746568 -23.40016,-9.457129 -26.468373,-6.388918 -0.35505,0.355042 2.525163,1.916696 4.259273,3.650811 -3.416303,0.112211 -38.702303,-7.029669 -22.817563,0.912702 -9.35334,3.221011 -19.2208,7.213563 -21.2964,15.515945 z"
       id="path3864"
       inkscape:connector-curvature="0"
       sodipodi:nodetypes="csscscscsscsscsssccsccccsccc" />
    <path
       style="fill:#786721;stroke:#504416;stroke-width:3;stroke-linecap:round;stroke-linejoin:miter;stroke-miterlimit:4;stroke-opacity:1;stroke-dasharray:none;display:inline"
       d="m 175.90096,115.01596 c -1.78495,5.56122 -0.82545,3.26206 -1.73815,5.18835 -1.34118,2.83063 3.54959,12.3827 3.54959,9.25042 0,-1.29075 0.32269,-3.11932 0.32269,-4.41008 0,-1.39641 0.72057,-8.85253 2.5815,-6.9916 0.1435,0.1435 0.43393,6.11082 0.65172,5.89304 2.0658,-2.06581 2.99643,-10.17757 4.51131,-13.20732 0.86612,-1.73224 2.838,-6.41875 4.09373,-5.16303 0.32553,0.32553 -3.5891,6.95023 0.40863,4.55904 0.49171,0.49171 7.87158,-1.88051 8.4052,-1.97753 4.39357,-0.79883 1.42234,0.0131 -0.18717,4.84165 -0.4057,1.21711 16.10454,-7.42707 16.1065,-7.42316 0.35537,0.71074 -0.039,3.40304 0.43025,3.87227 0.76948,0.76948 8.71933,-4.18823 9.8958,-3.01176 1.33902,1.33902 -0.88882,6.39715 0,8.17479 0.61438,1.22876 3.9237,-3.82084 4.73277,-3.01177 1.78706,1.78706 1.9582,5.40022 3.87227,7.31429 4.45896,4.45896 2.71963,14.69762 6.02353,16.34957 1.32533,0.66267 2.75108,-3.7027 3.01177,-3.44201 0.27536,0.27536 0.2091,3.01176 0.8605,3.01176 1.29076,0 1.12806,-1.48539 1.67329,-2.65533 2.74031,-5.88011 -1.3651,-12.98355 -1.67329,-18.85727 -0.9166,-17.46938 -18.3579,-21.719202 -32.69916,-24.524371 -2.69035,-0.526235 -15.35109,-1.560711 -20.22185,0.860504 -2.52617,1.25574 -8.02714,1.742631 -11.6168,3.87227 -3.42198,2.030158 -12.22103,13.816347 -13.08579,20.765457 -1.32136,10.61826 1.91022,-0.64873 2.32948,3.75891 0.28671,3.01414 -2.02091,5.22503 -2.58151,9.0353 -1.19173,8.09994 0.76499,1.19524 1.29076,1.72101 0.69975,0.69974 1.74394,12.04705 2.15126,12.04705 0.73129,0 0.0246,-1.54279 0.43025,-2.15126 4.39055,-6.58583 1.65809,-1.29076 3.87227,-1.29076 0.0172,0 0.75366,-10.88968 1.11254,-12.32519"
       id="path3970"
       inkscape:connector-curvature="0"
       sodipodi:nodetypes="cssscssscssccssssscsssssssssssssc" />
    <path
       style="fill:none;stroke:#2b2200;stroke-width:1.5;stroke-linecap:round;stroke-linejoin:round;stroke-miterlimit:4;stroke-opacity:1;stroke-dasharray:none;display:inline"
       d="m 291.78508,105.05819 c -2.16077,-0.19691 -2.4799,-1.4683 -4.5788,-2.30785 -1.75144,-0.70058 -6.25073,-4.190187 -4.56351,-3.34658 1.89332,0.94666 3.0066,2.80523 5.17198,3.34658 0.52069,-0.23592 1.35595,0.77368 1.8254,0.30423 0.51919,-0.51918 -3.95504,-3.619023 -3.95504,-4.259279 0,-2.926909 5.90065,0.820686 8.51855,2.129639 0.95577,0.47788 4.62784,2.90847 4.62784,3.16836 0,0.68246 -14.38761,-7.707587 -12.84216,-9.253043 0.95208,-0.952082 10.55529,1.018365 12.16937,1.825405 0.80658,0.403291 -4.66156,-5.073931 -3.34658,-6.388918 0.17931,-0.179303 3.08898,1.678205 3.34658,1.825405 0.36468,0.208392 9.43126,4.516498 9.43126,3.955045 0,-0.299528 -6.99739,-5.476524 -6.99739,-9.735494 0,-0.320691 0.65615,0.111819 0.9127,0.304234 2.24983,1.68737 4.98237,3.946197 6.69316,6.084684 2.90376,3.629706 7.63815,4.028809 11.25666,5.476215"
       id="path4235"
       inkscape:connector-curvature="0"
       sodipodi:nodetypes="csscsssssscsssssc" />
    <path
       style="fill:none;stroke:#2b2200;stroke-width:1.5;stroke-linecap:round;stroke-linejoin:round;stroke-miterlimit:4;stroke-opacity:1;stroke-dasharray:none;display:inline"
       d="m 307.58997,100.6207 c -10.35772,-4.964264 -7.04051,-1.694853 0.60847,2.12964"
       id="path4239"
       inkscape:connector-curvature="0" />
    <g
       style="stroke:#d45500;display:inline"
       id="g4643">
      <g
         id="g4647"
         style="fill:none;stroke:#d45500">
        <path
           style="fill:none;stroke:#d45500;stroke-width:3;stroke-linecap:round;stroke-linejoin:round;stroke-miterlimit:4;stroke-opacity:1;stroke-dasharray:none"
           d="m 53.136134,357.28991 c -6.99336,5.15591 -1.07563,-1.46843 -1.07563,7.09917 0,2.58151 -6.884034,12.90755 -1.721008,9.46554 1.195181,-0.79679 7.015082,-8.6185 6.884033,-8.17479 -2.452509,8.30379 8.676752,3.44202 6.668908,3.44202 -0.138404,0 -1.678848,-12.04706 2.796639,-12.04706 1.277185,0 -5.383251,7.95966 -6.238656,7.95966 -2.053424,0 9.453632,-2.14729 11.401681,-2.79664 1.948049,-0.64935 4.674958,-4.41815 5.593277,-2.58151 0.731288,1.46258 -4.302521,7.87387 -4.302521,6.23866 0,-0.16023 7.696969,-2.73692 8.17479,-2.79664 6.107415,-0.76343 9.570958,-3.06447 13.768067,-5.16303 1.804848,-0.90242 -0.07979,1.68111 0.860505,2.15126 1.316197,0.6581 4.726401,0.002 6.023531,-0.43025 3.72686,-1.24229 6.97608,-3.27291 9.8958,-4.73277 0.55884,-0.27942 1.85397,-5.32736 2.15126,-4.73278 1.62448,3.24897 0.94595,8.43114 2.15126,12.04706 2.12425,6.37276 0.73736,-0.8605 3.01176,-0.8605 0.91558,0 1.33759,7.45478 1.72101,8.60504 1.0567,3.17009 2.58151,8.94991 2.58151,12.47731 0,0.0868 0.25552,2.07049 0.43026,1.72101 0.74065,-1.4813 0.68729,-5.16303 1.721,-5.16303 0.56854,0 3.44202,8.03441 3.44202,0.43026 0,-1.65262 0.92195,-2.82731 1.29076,-4.30252"
           id="path4639"
           inkscape:connector-curvature="0"
           sodipodi:nodetypes="cssssssssscsscsssssssssc" />
        <path
           style="fill:none;stroke:#d45500;stroke-width:3;stroke-linecap:round;stroke-linejoin:miter;stroke-miterlimit:4;stroke-opacity:1;stroke-dasharray:none"
           d="m 53.35126,357.28992 c -2.1677,-24.24723 15.645883,-11.98875 17.210085,-13.55295 1.544652,-1.54465 -7.547126,-7.62812 -5.593278,-8.60504 3.963427,-1.98171 9.955624,3.93209 11.616807,5.59328 0.600809,-0.36072 -3.29653,-8.07987 -3.011765,-8.17479 5.167422,-1.72248 9.614724,6.02353 12.477311,6.02353 2.053424,0 -4.418151,-4.67496 -2.581512,-5.59328 7.416038,-3.70802 21.842732,2.48138 26.245382,6.88403 0.27268,0.27269 -0.97835,-3.55986 -1.72101,-4.30252 -0.54612,-0.54611 -0.98746,-1.93613 -0.21513,-1.93613 6.89972,0 12.34074,4.62239 17.42521,11.40168 0.38437,1.59672 2.38037,-0.20115 3.01177,0.43025 3.03438,3.03438 1.29075,25.27011 1.29075,29.25714"
           id="path4641"
           inkscape:connector-curvature="0"
           sodipodi:nodetypes="csscssscsscsc" />
      </g>
    </g>
    <path
       style="fill:#ff7f2a;stroke:#ff7f2a;stroke-opacity:1"
       d="m 127.22413,378.41686 c -0.2213,-0.5767 -1.31489,-1.06049 -2.03812,-0.90164 -0.55312,0.12148 -0.63611,0.0696 -0.75207,-0.47039 -0.11852,-0.55185 -0.6824,-2.80215 -1.79622,-7.16829 -0.22638,-0.88739 -0.57537,-2.86102 -0.77553,-4.38584 -0.40702,-3.10063 -0.76519,-4.49577 -1.30824,-5.09584 -0.526,-0.58122 -1.65381,-0.74065 -2.44551,-0.3457 -0.36046,0.17982 -0.69821,0.25766 -0.75055,0.17298 -0.0523,-0.0847 -0.25283,-1.69835 -0.44554,-3.58592 -0.58592,-5.73888 -1.23448,-7.71091 -2.62156,-7.97113 -0.49432,-0.0927 -0.88737,-0.0218 -1.27057,0.22927 -0.56622,0.37101 -0.67262,0.57758 -1.68497,3.27148 l -0.57988,1.54308 -3.59089,1.82049 c -4.08968,2.07335 -6.33365,2.90639 -8.331617,3.09296 -1.386881,0.12951 -1.390362,0.12843 -1.390362,-0.42897 0,-1.3692 -0.930431,-2.18926 -2.196585,-1.93603 -0.381173,0.0762 -2.196824,0.89061 -4.034782,1.80971 -3.725191,1.86285 -6.31817,2.80432 -9.042582,3.28319 -1.005714,0.17677 -2.250072,0.47265 -2.765241,0.65749 -0.880234,0.31583 -0.927437,0.31349 -0.783392,-0.0387 0.471945,-1.15409 0.568709,-1.89418 0.345193,-2.6402 -0.324518,-1.08315 -0.915224,-1.54482 -2.125366,-1.6611 -0.950896,-0.0914 -1.138326,-0.0226 -2.422347,0.88926 -0.765438,0.54356 -1.758127,1.24659 -2.205978,1.5623 -0.7053,0.4972 -5.082471,1.77471 -6.142425,1.79272 -0.1669,0.003 0.113905,-0.5599 0.668484,-1.33965 1.761605,-2.47685 2.049158,-3.50938 1.251497,-4.49382 -0.335946,-0.41461 -0.606499,-0.5051 -1.47343,-0.49284 -0.643502,0.009 -1.350193,0.18253 -1.793534,0.44013 -0.944304,0.54867 -2.058874,2.41305 -2.361173,3.9496 -0.185791,0.94436 -0.43596,1.42049 -1.148108,2.18509 -0.500806,0.5377 -1.222169,1.16171 -1.60303,1.38668 -0.380861,0.22498 -0.746359,0.62375 -0.812217,0.88615 l -0.119742,0.47709 -0.59998,-0.44359 c -1.080636,-0.79894 -1.668529,-0.45682 -3.782847,2.20144 -1.031459,1.29682 -1.91424,2.319 -1.961735,2.2715 -0.0475,-0.0475 0.184184,-0.75162 0.514843,-1.56471 0.535581,-1.31699 0.600089,-1.73664 0.591018,-3.84474 -0.0074,-1.7233 -0.107822,-2.58821 -0.369472,-3.18263 l -0.359291,-0.81625 0.968963,-0.58207 c 0.532929,-0.32014 1.009688,-0.77569 1.059464,-1.01232 0.04977,-0.23664 0.129983,-2.26958 0.178241,-4.51765 0.07298,-3.39968 0.16372,-4.32283 0.539318,-5.48669 0.905003,-2.80432 2.431462,-4.05355 5.194718,-4.25126 1.233978,-0.0883 2.064244,0.0489 5.471939,0.90449 3.531222,0.88654 4.107653,0.97872 4.764586,0.76192 1.342931,-0.44321 1.764792,-2.0655 0.951609,-3.65946 -0.238499,-0.4675 -1.363647,-1.81894 -2.500327,-3.0032 -1.13668,-1.18426 -1.921433,-2.1532 -1.743896,-2.1532 1.219427,0 4.149894,1.9298 7.140401,4.70215 1.295239,1.20075 2.416894,2.11029 2.492567,2.02119 0.07567,-0.0891 0.355345,-0.68331 0.621492,-1.32048 0.598565,-1.43299 0.525723,-1.90906 -0.777304,-5.08017 -0.534797,-1.30151 -1.024073,-2.49561 -1.087277,-2.65354 -0.208326,-0.52058 2.375736,0.97323 4.032518,2.33114 4.020465,3.2952 5.035361,3.84976 6.531698,3.56905 0.509875,-0.0956 0.92237,-0.36477 1.237539,-0.80738 0.428419,-0.60166 0.446965,-0.73706 0.19781,-1.44403 -0.151214,-0.42906 -0.844038,-1.47393 -1.53961,-2.32192 l -1.264676,-1.54181 1.086352,-0.23298 c 3.927031,-0.8422 9.902351,0.36436 15.811506,3.19273 3.22703,1.54458 5.04259,2.7483 7.51921,4.98522 1.47912,1.33596 1.95374,1.66066 2.01072,1.37557 0.041,-0.20525 -0.0322,-1.27828 -0.16262,-2.38451 -0.20184,-1.71139 -0.62899,-3.24963 -1.41998,-5.11357 -0.15286,-0.36021 -0.0962,-0.38512 0.56144,-0.24676 2.68369,0.56466 6.20949,2.6902 8.90093,5.36597 1.76244,1.75217 4.63052,5.16865 4.63052,5.51591 0,0.41912 1.37048,0.8915 2.2868,0.78821 0.88066,-0.0993 0.93516,-0.0722 1.14346,0.56764 0.77192,2.37116 0.97137,8.0589 0.65141,18.57645 -0.18903,6.21365 -0.20202,8.9512 -0.0434,9.14286 0.16244,0.19626 0.0834,0.69828 -0.27974,1.77647 -0.36313,1.07816 -0.54754,1.39509 -0.65255,1.12145 l 0,0 z"
       id="path4667"
       inkscape:connector-curvature="0" />
    <path
       style="fill:#a0a0a0;stroke:#aa4400;stroke-opacity:1"
       d=""
       id="path4669"
       inkscape:connector-curvature="0" />
    <path
       style="fill:#ff7f2a;fill-opacity:1;stroke:#ff7f2a;stroke-width:0.5;stroke-miterlimit:4;stroke-opacity:1;stroke-dasharray:none"
       d="m 59.310045,368.96898 c -0.711341,-0.13604 -0.904828,-0.39352 -0.902477,-1.20097 0.0013,-0.4622 0.03518,-0.68938 0.212213,-1.42514 0.06027,-0.25047 0.110438,-0.52428 0.111489,-0.60847 l 0.0019,-0.15307 0.121683,0.14753 c 0.317508,0.38497 0.459323,0.51461 0.68321,0.62459 0.605071,0.29721 1.323735,0.24802 1.963196,-0.13438 0.09645,-0.0577 0.255186,-0.12358 0.352755,-0.14646 l 0.1774,-0.0416 0.02105,0.25052 c 0.01158,0.13779 0.03084,0.40454 0.04279,0.59279 0.02891,0.45522 0.132559,1.58625 0.150225,1.63931 0.0185,0.0556 -0.629264,0.25102 -1.242793,0.37501 -0.60156,0.12157 -1.302935,0.15486 -1.692662,0.0803 l 0,0 z"
       id="path4671"
       inkscape:connector-curvature="0" />
    <path
       style="fill:#aa4400;stroke:#ff7f2a;stroke-width:0.30000001;stroke-miterlimit:4;stroke-opacity:1;stroke-dasharray:none"
       d="m 51.268158,370.61947 c 0,-0.0105 0.554869,-1.2125 0.608877,-1.31895 l 0.02729,-0.0538 0.04271,0.12773 c 0.02782,0.0832 0.05023,0.12919 0.0643,0.13192 0.01188,0.002 0.05626,-0.002 0.09863,-0.01 0.04237,-0.008 0.07884,-0.0124 0.08104,-0.0102 0.005,0.005 -0.09157,0.12588 -0.54418,0.68163 -0.405585,0.498 -0.378669,0.46589 -0.378669,0.45172 z"
       id="path4673"
       inkscape:connector-curvature="0" />
    <path
       style="fill:#a0a0a0;stroke:none"
       d=""
       id="path4675"
       inkscape:connector-curvature="0" />
    <path
       style="fill:#aa4400;stroke:#ff7f2a;stroke-width:0.60000002;stroke-miterlimit:4;stroke-opacity:1;stroke-dasharray:none"
       d="m 65.643415,362.07252 c 0.100347,-0.12574 0.09349,-0.1226 0.104335,-0.0478 0.0036,0.0247 0.01054,0.0474 0.01547,0.0505 0.02034,0.0126 0.0052,0.021 -0.06494,0.0361 -0.04064,0.009 -0.07943,0.0159 -0.0862,0.0159 -0.0068,0 0.0073,-0.0246 0.03133,-0.0547 z"
       id="path4677"
       inkscape:connector-curvature="0" />
    <path
       style="fill:#d45500;stroke:#d45500;stroke-width:0.52492696;stroke-opacity:1"
       d="m 110.32829,342.19601 c -0.0641,-0.30965 -1.08633,-2.00528 -1.08633,-2.02503 0,-0.0419 1.16503,0.60663 1.16945,0.63099 -1.30901,-3.51912 1.63483,1.36107 1.63223,1.37704 -9.4e-4,0.005 -1.65123,0.32665 -1.71537,0.017 l 0,0 z"
       id="path4679"
       inkscape:connector-curvature="0"
       sodipodi:nodetypes="csccccc" />
    <path
       style="fill:#aa4400;stroke:#ff7f2a;stroke-width:0.40000001;stroke-miterlimit:4;stroke-opacity:1;stroke-dasharray:none"
       d="m 127.5317,379.07325 c -0.0253,-0.0455 -0.0445,-0.0842 -0.0426,-0.0861 0.007,-0.007 0.0962,-0.0429 0.0992,-0.0399 0.002,0.002 9e-5,0.0495 -0.004,0.10597 l -0.007,0.10276 -0.046,-0.0827 z"
       id="path4681"
       inkscape:connector-curvature="0" />
    <path
       style="fill:none;stroke:#aa4400;stroke-width:1px;stroke-linecap:round;stroke-linejoin:round;stroke-opacity:1"
       d="m 74.756303,347.60924 c -0.709191,1.50219 -1.987681,3.03754 -3.442017,3.76471"
       id="path4742"
       inkscape:connector-curvature="0" />
    <path
       style="fill:none;stroke:#aa4400;stroke-width:1px;stroke-linecap:round;stroke-linejoin:round;stroke-opacity:1"
       d="m 88.201681,347.82437 c -0.965388,0.81207 -2.008696,1.56393 -3.011765,2.36638 -0.362483,0.28999 -2.02261,3.84345 -1.936134,3.87227 2.164561,0.72152 9.765995,-2.75216 10.863865,-4.9479"
       id="path4744"
       inkscape:connector-curvature="0" />
    <path
       style="fill:none;stroke:#aa4400;stroke-width:1px;stroke-linecap:round;stroke-linejoin:round;stroke-opacity:1"
       d="m 65.721009,351.37395 c -3.458192,-0.0512 -6.252985,2.96152 -6.991597,5.91596"
       id="path4746"
       inkscape:connector-curvature="0" />
    <path
       style="fill:none;stroke:#aa4400;stroke-width:1px;stroke-linecap:round;stroke-linejoin:round;stroke-opacity:1"
       d="m 99.926051,344.05966 c -0.58018,-0.5961 -1.150589,-0.86615 -1.936135,-1.07563 -2.208735,-0.589 -4.769873,-0.75294 -6.453781,-0.75294 -0.09981,0 2.910059,1.40183 5.055462,2.68907"
       id="path4748"
       inkscape:connector-curvature="0" />
    <path
       style="fill:none;stroke:#aa4400;stroke-width:1px;stroke-linecap:round;stroke-linejoin:round;stroke-opacity:1"
       d="m 107.99328,348.36218 c -2.4454,2.83098 -13.445038,7.09908 -2.25883,4.30252"
       id="path4750"
       inkscape:connector-curvature="0" />
    <path
       style="fill:none;stroke:#aa4400;stroke-width:1px;stroke-linecap:round;stroke-linejoin:round;stroke-opacity:1"
       d="m 124.34286,349.43781 c 0.55884,-1.66977 -3.96878,-6.46483 -5.37815,-5.05546 -0.22584,0.22584 2.50563,5.88763 2.9042,6.88403"
       id="path4752"
       inkscape:connector-curvature="0" />
    <path
       style="fill:none;stroke:#aa4400;stroke-width:1px;stroke-linecap:round;stroke-linejoin:round;stroke-opacity:1"
       d="m 123.69748,362.02269 c 0.14547,-1.52887 -0.46711,-2.87035 -1.07563,-4.0874"
       id="path4754"
       inkscape:connector-curvature="0" />
    <path
       style="fill:none;stroke:#000000;stroke-width:1px;stroke-linecap:butt;stroke-linejoin:miter;stroke-opacity:1"
       d="M 80.013589,100.71767 C 76.694396,106.626 68.297196,115.55078 81.53476,108.932"
       id="path4756"
       inkscape:connector-curvature="0" />
    <path
       style="fill:none;stroke:#000000;stroke-width:1px;stroke-linecap:butt;stroke-linejoin:miter;stroke-opacity:1"
       d="m 91.878722,99.80497 c 0.369413,2.54963 -0.622108,5.22654 -1.216937,7.60585"
       id="path4771"
       inkscape:connector-curvature="0" />
    <path
       style="fill:none;stroke:#000000;stroke-width:1px;stroke-linecap:butt;stroke-linejoin:miter;stroke-opacity:1"
       d="m 107.09043,99.500736 c -5.14023,10.320194 -3.7927,9.086444 8.21432,6.084684"
       id="path4773"
       inkscape:connector-curvature="0" />
    <path
       style="fill:none;stroke:#000000;stroke-width:1px;stroke-linecap:butt;stroke-linejoin:miter;stroke-opacity:1"
       d="m 67.539988,108.01929 c -1.806318,11.01554 -7.537004,20.01061 3.65081,8.82279"
       id="path4775"
       inkscape:connector-curvature="0" />
    <path
       style="fill:none;stroke:#000000;stroke-width:1px;stroke-linecap:butt;stroke-linejoin:miter;stroke-opacity:1"
       d="m 83.968633,115.92938 c -1.42527,5.27426 -1.212333,6.08008 2.738108,2.12964"
       id="path4777"
       inkscape:connector-curvature="0" />
    <path
       style="fill:none;stroke:#000000;stroke-width:1px;stroke-linecap:butt;stroke-linejoin:miter;stroke-opacity:1"
       d="m 126.86565,105.28119 c -1.04394,-1.77646 -6.70215,1.8164 -6.08468,2.43387 0.22683,0.22683 6.08468,-0.14702 6.08468,0 0,1.36773 0.15925,3.98355 0.60847,5.78045"
       id="path4779"
       inkscape:connector-curvature="0" />
    <path
       style="fill:none;stroke:#000000;stroke-width:1px;stroke-linecap:butt;stroke-linejoin:miter;stroke-opacity:1"
       d="m 63.889177,139.35541 c 0.196307,1.51903 0.385484,1.98791 0.912703,3.04235"
       id="path4781"
       inkscape:connector-curvature="0" />
    <path
       style="fill:none;stroke:#000000;stroke-width:1px;stroke-linecap:butt;stroke-linejoin:miter;stroke-opacity:1"
       d="m 69.669627,146.04857 c 1.622582,1.21693 1.622582,1.21693 0,0 z"
       id="path4783"
       inkscape:connector-curvature="0" />
    <path
       style="fill:none;stroke:#000000;stroke-width:1px;stroke-linecap:butt;stroke-linejoin:miter;stroke-opacity:1"
       d="m 72.1035,153.65442 c 0.202823,0.40565 0.405646,0.81129 0,0 z"
       id="path4785"
       inkscape:connector-curvature="0" />
    <path
       style="fill:none;stroke:#000000;stroke-width:1px;stroke-linecap:butt;stroke-linejoin:miter;stroke-opacity:1"
       d="m 79.100886,156.39253 c 0.384604,1.96299 1.39773,3.79045 2.433874,5.17198"
       id="path4787"
       inkscape:connector-curvature="0" />
    <path
       style="fill:none;stroke:#000000;stroke-width:1px;stroke-linecap:butt;stroke-linejoin:miter;stroke-opacity:1"
       d="m 85.18557,155.78406 c 0.461182,0.93502 1.204072,2.10391 1.521171,2.73811"
       id="path4791"
       inkscape:connector-curvature="0" />
    <path
       style="fill:none;stroke:#000000;stroke-width:1px;stroke-linecap:butt;stroke-linejoin:miter;stroke-opacity:1"
       d="m 74.23314,157.30523 1.825405,2.43387"
       id="path4793"
       inkscape:connector-curvature="0" />
    <path
       style="fill:none;stroke:#000000;stroke-width:1px;stroke-linecap:butt;stroke-linejoin:miter;stroke-opacity:1"
       d="m 86.098272,165.21532 1.521171,2.73811"
       id="path4795"
       inkscape:connector-curvature="0" />
    <path
       style="fill:none;stroke:#000000;stroke-width:1px;stroke-linecap:butt;stroke-linejoin:miter;stroke-opacity:1"
       d="m 94.312595,163.99838 c 0,0.81129 0,1.62258 0,2.43388"
       id="path4797"
       inkscape:connector-curvature="0" />
    <path
       style="fill:none;stroke:#000000;stroke-width:1px;stroke-linecap:butt;stroke-linejoin:miter;stroke-opacity:1"
       d="m 104.96079,163.38991 c -0.87042,1.10998 -0.98248,2.26921 -1.52117,3.34658"
       id="path4799"
       inkscape:connector-curvature="0" />
    <path
       style="fill:none;stroke:#000000;stroke-width:1px;stroke-linecap:butt;stroke-linejoin:miter;stroke-opacity:1"
       d="m 99.180342,164.60685 c -0.729115,0.79165 0.271754,1.63053 0.304234,1.82541"
       id="path4801"
       inkscape:connector-curvature="0" />
    <path
       style="fill:none;stroke:#000000;stroke-width:1px;stroke-linecap:butt;stroke-linejoin:miter;stroke-opacity:1"
       d="m 92.182956,146.3528 c 0.101411,0.40565 0.202823,0.81129 0.304234,1.21694 0,0.10141 0,0.20282 0,0.30423"
       id="path4803"
       inkscape:connector-curvature="0" />
    <path
       style="fill:none;stroke:#000000;stroke-width:1px;stroke-linecap:butt;stroke-linejoin:miter;stroke-opacity:1"
       d="m 98.876108,146.3528 c 0.101411,0.40565 0.202823,0.81129 0.304234,1.21694 0.101412,0.10141 0.202823,0.20282 0.304234,0.30423"
       id="path4805"
       inkscape:connector-curvature="0" />
    <path
       style="fill:none;stroke:#000000;stroke-width:1px;stroke-linecap:butt;stroke-linejoin:miter;stroke-opacity:1"
       d="m 106.7862,146.65703 0.60846,1.82541"
       id="path4807"
       inkscape:connector-curvature="0" />
    <path
       style="fill:none;stroke:#000000;stroke-width:1px;stroke-linecap:butt;stroke-linejoin:miter;stroke-opacity:1"
       d="m 113.47935,151.82901 -1.52117,2.73811"
       id="path4809"
       inkscape:connector-curvature="0" />
    <path
       style="fill:none;stroke:#000000;stroke-width:1px;stroke-linecap:butt;stroke-linejoin:miter;stroke-opacity:1"
       d="m 111.65394,159.7391 c -0.0145,1.38338 0.0391,1.67765 0.30424,2.73811"
       id="path4811"
       inkscape:connector-curvature="0" />
    <path
       style="fill:none;stroke:#000000;stroke-width:1px;stroke-linecap:butt;stroke-linejoin:miter;stroke-opacity:1"
       d="m 108.00313,161.56451 2.73811,5.47621"
       id="path4813"
       inkscape:connector-curvature="0" />
    <path
       style="fill:none;stroke:#000000;stroke-width:1px;stroke-linecap:butt;stroke-linejoin:miter;stroke-opacity:1"
       d="m 118.65133,157.9137 c -0.0102,4.9672 -0.47109,4.19059 3.04234,2.43387"
       id="path4815"
       inkscape:connector-curvature="0" />
    <path
       style="fill:none;stroke:#000000;stroke-width:1px;stroke-linecap:butt;stroke-linejoin:miter;stroke-opacity:1"
       d="m 127.16989,148.78667 c -3.72184,4.72502 -3.10395,3.95505 2.12964,3.95505"
       id="path4817"
       inkscape:connector-curvature="0" />
    <path
       style="fill:none;stroke:#000000;stroke-width:1px;stroke-linecap:butt;stroke-linejoin:miter;stroke-opacity:1"
       d="m 72.1035,153.04595 c 2.861254,2.11387 6.589645,3.30998 3.65081,-0.60847"
       id="path4819"
       inkscape:connector-curvature="0" />
    <path
       style="fill:none;stroke:#000000;stroke-width:1px;stroke-linecap:butt;stroke-linejoin:miter;stroke-opacity:1"
       d="m 66.627285,135.40037 c -1.809191,4.48068 2.738108,16.34408 2.738108,7.30162"
       id="path4821"
       inkscape:connector-curvature="0" />
    <path
       style="fill:none;stroke:#000000;stroke-width:1px;stroke-linecap:butt;stroke-linejoin:miter;stroke-opacity:1"
       d="m 94.616829,164.91108 c 1.875228,2.78052 1.532911,9.99278 3.042342,3.95505"
       id="path4823"
       inkscape:connector-curvature="0" />
  </g>
</svg>
